<svg width="39" height="39" viewBox="0 0 39 39" fill="none" xmlns="http://www.w3.org/2000/svg">
<path d="M4.875 19.5H19.5V21.9375H4.875V19.5Z" fill="url(#paint0_linear_482_303)"/>
<path d="M2.4375 13.4062H14.625V15.8438H2.4375V13.4062Z" fill="url(#paint1_linear_482_303)"/>
<path d="M36.464 20.2386L32.8077 11.7073C32.7139 11.488 32.5577 11.3011 32.3586 11.1698C32.1595 11.0385 31.9262 10.9686 31.6877 10.9687H28.0314V8.53125C28.0314 8.20802 27.903 7.89802 27.6745 7.66946C27.4459 7.4409 27.1359 7.3125 26.8127 7.3125H7.31269V9.75H25.5939V25.0526C25.0386 25.3751 24.5526 25.8043 24.1639 26.3155C23.7753 26.8268 23.4917 27.4099 23.3295 28.0312H15.6709C15.3742 26.8824 14.6688 25.8811 13.6867 25.2152C12.7047 24.5493 11.5135 24.2643 10.3364 24.4139C9.15933 24.5634 8.07718 25.137 7.2928 26.0273C6.50843 26.9176 6.07568 28.0635 6.07568 29.25C6.07568 30.4365 6.50843 31.5824 7.2928 32.4727C8.07718 33.363 9.15933 33.9366 10.3364 34.0861C11.5135 34.2357 12.7047 33.9507 13.6867 33.2848C14.6688 32.6189 15.3742 31.6176 15.6709 30.4687H23.3295C23.5946 31.5147 24.2009 32.4424 25.0525 33.1051C25.9041 33.7678 26.9524 34.1276 28.0314 34.1276C29.1105 34.1276 30.1587 33.7678 31.0103 33.1051C31.8619 32.4424 32.4683 31.5147 32.7334 30.4687H35.3439C35.6672 30.4687 35.9772 30.3403 36.2057 30.1118C36.4343 29.8832 36.5627 29.5732 36.5627 29.25V20.7187C36.5628 20.5536 36.5292 20.3903 36.464 20.2386V20.2386ZM10.9689 31.6875C10.4869 31.6875 10.0156 31.5445 9.61474 31.2767C9.2139 31.0089 8.90148 30.6282 8.71699 30.1828C8.5325 29.7374 8.48423 29.2473 8.57828 28.7745C8.67233 28.3016 8.90448 27.8673 9.24537 27.5264C9.58626 27.1855 10.0206 26.9534 10.4934 26.8593C10.9662 26.7653 11.4563 26.8136 11.9017 26.998C12.3471 27.1825 12.7278 27.4949 12.9957 27.8958C13.2635 28.2966 13.4064 28.7679 13.4064 29.25C13.4058 29.8963 13.1488 30.5159 12.6918 30.9729C12.2348 31.4298 11.6152 31.6869 10.9689 31.6875V31.6875ZM28.0314 13.4062H30.8833L33.4963 19.5H28.0314V13.4062ZM28.0314 31.6875C27.5494 31.6875 27.0781 31.5445 26.6772 31.2767C26.2764 31.0089 25.964 30.6282 25.7795 30.1828C25.595 29.7374 25.5467 29.2473 25.6408 28.7745C25.7348 28.3016 25.967 27.8673 26.3079 27.5264C26.6488 27.1855 27.0831 26.9534 27.5559 26.8593C28.0287 26.7653 28.5188 26.8136 28.9642 26.998C29.4096 27.1825 29.7903 27.4949 30.0582 27.8958C30.326 28.2966 30.4689 28.7679 30.4689 29.25C30.4683 29.8963 30.2113 30.5159 29.7543 30.9729C29.2973 31.4298 28.6777 31.6869 28.0314 31.6875ZM34.1252 28.0312H32.7334C32.4649 26.9873 31.8576 26.062 31.0067 25.4003C30.1558 24.7386 29.1093 24.378 28.0314 24.375V21.9375H34.1252V28.0312Z" fill="url(#paint2_linear_482_303)"/>
<defs>
<linearGradient id="paint0_linear_482_303" x1="5.86985" y1="20.2678" x2="19.9191" y2="21.77" gradientUnits="userSpaceOnUse">
<stop stop-color="#4280CF"/>
<stop offset="0.0812499" stop-color="#3975C0"/>
<stop offset="0.451042" stop-color="#0C315F"/>
<stop offset="0.586458" stop-color="#0A2444"/>
<stop offset="0.815625" stop-color="#03234B"/>
<stop offset="1" stop-color="#4280CF"/>
</linearGradient>
<linearGradient id="paint1_linear_482_303" x1="3.26655" y1="14.1741" x2="15.0148" y2="15.2208" gradientUnits="userSpaceOnUse">
<stop stop-color="#4280CF"/>
<stop offset="0.0812499" stop-color="#3975C0"/>
<stop offset="0.451042" stop-color="#0C315F"/>
<stop offset="0.586458" stop-color="#0A2444"/>
<stop offset="0.815625" stop-color="#03234B"/>
<stop offset="1" stop-color="#4280CF"/>
</linearGradient>
<linearGradient id="paint2_linear_482_303" x1="8.14954" y1="15.7592" x2="37.759" y2="16.3591" gradientUnits="userSpaceOnUse">
<stop stop-color="#4280CF"/>
<stop offset="0.0812499" stop-color="#3975C0"/>
<stop offset="0.451042" stop-color="#0C315F"/>
<stop offset="0.586458" stop-color="#0A2444"/>
<stop offset="0.815625" stop-color="#03234B"/>
<stop offset="1" stop-color="#4280CF"/>
</linearGradient>
</defs>
</svg>
