<svg width="35" height="31" viewBox="0 0 35 31" fill="none" xmlns="http://www.w3.org/2000/svg">
<path d="M16.8378 4.64503L17.4968 5.33484L18.1558 4.64503C19.6959 3.03294 22.3135 0.9114 25.2461 0.9114C27.9004 0.9114 30.0995 1.83299 31.6329 3.36368C33.1661 4.89426 34.0886 7.08864 34.0886 9.73636C34.0886 12.6296 32.955 15.0344 31.1948 17.2283C29.417 19.4441 27.0457 21.3914 24.6208 23.3782L24.6123 23.3851C22.3523 25.2361 19.9346 27.2162 18.0646 29.4266C17.9334 29.581 17.7428 29.6691 17.5445 29.6691H17.4523C17.2538 29.6691 17.0622 29.5812 16.9306 29.4266C15.0797 27.2351 12.6855 25.2712 10.4451 23.4336L10.378 23.3785L10.3777 23.3782C7.95205 21.3907 5.58105 19.443 3.8039 17.2273C2.04424 15.0333 0.9114 12.6289 0.9114 9.73636C0.9114 7.08864 1.8339 4.89428 3.3673 3.36372C4.90081 1.83304 7.10032 0.9114 9.75546 0.9114C12.686 0.9114 15.297 3.03219 16.8378 4.64503Z" stroke="#FB4B29" stroke-width="1.8228"/>
</svg>
