<svg width="24" height="24" viewBox="0 0 24 24" fill="none" xmlns="http://www.w3.org/2000/svg">
<path d="M4.5 6.75H19.5C20.2956 6.75 21.0587 7.06607 21.6213 7.62868C22.1839 8.19129 22.5 8.95435 22.5 9.75V14.25C22.5 15.0456 22.1839 15.8087 21.6213 16.3713C21.0587 16.9339 20.2956 17.25 19.5 17.25H4.5C3.70435 17.25 2.94129 16.9339 2.37868 16.3713C1.81607 15.8087 1.5 15.0456 1.5 14.25V9.75C1.5 8.95435 1.81607 8.19129 2.37868 7.62868C2.94129 7.06607 3.70435 6.75 4.5 6.75ZM4.5 8.25C4.10218 8.25 3.72064 8.40804 3.43934 8.68934C3.15804 8.97064 3 9.35218 3 9.75V14.25C3 14.6478 3.15804 15.0294 3.43934 15.3107C3.72064 15.592 4.10218 15.75 4.5 15.75H19.5C19.8978 15.75 20.2794 15.592 20.5607 15.3107C20.842 15.0294 21 14.6478 21 14.25V9.75C21 9.35218 20.842 8.97064 20.5607 8.68934C20.2794 8.40804 19.8978 8.25 19.5 8.25H4.5ZM1.5 3C1.5 2.80109 1.57902 2.61032 1.71967 2.46967C1.86032 2.32902 2.05109 2.25 2.25 2.25H21.75C21.9489 2.25 22.1397 2.32902 22.2803 2.46967C22.421 2.61032 22.5 2.80109 22.5 3C22.5 3.19891 22.421 3.38968 22.2803 3.53033C22.1397 3.67098 21.9489 3.75 21.75 3.75H2.25C2.05109 3.75 1.86032 3.67098 1.71967 3.53033C1.57902 3.38968 1.5 3.19891 1.5 3ZM1.5 21C1.5 20.8011 1.57902 20.6103 1.71967 20.4697C1.86032 20.329 2.05109 20.25 2.25 20.25H21.75C21.9489 20.25 22.1397 20.329 22.2803 20.4697C22.421 20.6103 22.5 20.8011 22.5 21C22.5 21.1989 22.421 21.3897 22.2803 21.5303C22.1397 21.671 21.9489 21.75 21.75 21.75H2.25C2.05109 21.75 1.86032 21.671 1.71967 21.5303C1.57902 21.3897 1.5 21.1989 1.5 21Z" fill="white"/>
</svg>
