<svg width="16" height="16" viewBox="0 0 16 16" fill="none" xmlns="http://www.w3.org/2000/svg">
<g clip-path="url(#clip0_262_2)">
<path fill-rule="evenodd" clip-rule="evenodd" d="M5.8279 10.172C5.73414 10.0783 5.60698 10.0256 5.4744 10.0256C5.34182 10.0256 5.21467 10.0783 5.1209 10.172L1.0249 14.268V11.5C1.0249 11.3674 0.972224 11.2402 0.878456 11.1464C0.784688 11.0527 0.657511 11 0.524902 11C0.392294 11 0.265117 11.0527 0.171349 11.1464C0.0775808 11.2402 0.0249023 11.3674 0.0249023 11.5V15.475C0.0249023 15.6076 0.0775808 15.7348 0.171349 15.8285C0.265117 15.9223 0.392294 15.975 0.524902 15.975H4.4999C4.63251 15.975 4.75969 15.9223 4.85346 15.8285C4.94722 15.7348 4.9999 15.6076 4.9999 15.475C4.9999 15.3424 4.94722 15.2152 4.85346 15.1214C4.75969 15.0277 4.63251 14.975 4.4999 14.975H1.7319L5.8279 10.879C5.92164 10.7852 5.9743 10.6581 5.9743 10.5255C5.9743 10.3929 5.92164 10.2658 5.8279 10.172ZM10.1719 5.82799C10.2657 5.92173 10.3928 5.97439 10.5254 5.97439C10.658 5.97439 10.7851 5.92173 10.8789 5.82799L14.9749 1.73199V4.49999C14.9749 4.6326 15.0276 4.75978 15.1213 4.85355C15.2151 4.94732 15.3423 4.99999 15.4749 4.99999C15.6075 4.99999 15.7347 4.94732 15.8285 4.85355C15.9222 4.75978 15.9749 4.6326 15.9749 4.49999V0.524994C15.9749 0.392386 15.9222 0.265209 15.8285 0.17144C15.7347 0.0776723 15.6075 0.0249939 15.4749 0.0249939H11.4999C11.3673 0.0249939 11.2401 0.0776723 11.1463 0.17144C11.0526 0.265209 10.9999 0.392386 10.9999 0.524994C10.9999 0.657602 11.0526 0.784779 11.1463 0.878547C11.2401 0.972315 11.3673 1.02499 11.4999 1.02499H14.2679L10.1719 5.12099C10.0782 5.21476 10.0255 5.34191 10.0255 5.47449C10.0255 5.60708 10.0782 5.73423 10.1719 5.82799Z" fill="white"/>
</g>
<defs>
<clipPath id="clip0_262_2">
<rect width="16" height="16" fill="white"/>
</clipPath>
</defs>
</svg>
