<svg width="16" height="16" viewBox="0 0 16 16" fill="none" xmlns="http://www.w3.org/2000/svg">
<g clip-path="url(#clip0_262_4)">
<path fill-rule="evenodd" clip-rule="evenodd" d="M0.171784 15.828C0.265548 15.9217 0.392702 15.9744 0.525284 15.9744C0.657866 15.9744 0.78502 15.9217 0.878784 15.828L4.97478 11.732V14.5C4.97478 14.6326 5.02746 14.7598 5.12123 14.8536C5.215 14.9473 5.34218 15 5.47478 15C5.60739 15 5.73457 14.9473 5.82834 14.8536C5.92211 14.7598 5.97478 14.6326 5.97478 14.5V10.525C5.97478 10.3924 5.92211 10.2652 5.82834 10.1714C5.73457 10.0777 5.60739 10.025 5.47478 10.025H1.49978C1.36718 10.025 1.24 10.0777 1.14623 10.1714C1.05246 10.2652 0.999784 10.3924 0.999784 10.525C0.999784 10.6576 1.05246 10.7848 1.14623 10.8786C1.24 10.9723 1.36718 11.025 1.49978 11.025H4.26778L0.171784 15.121C0.0780483 15.2148 0.0253906 15.3419 0.0253906 15.4745C0.0253906 15.6071 0.0780483 15.7342 0.171784 15.828ZM15.8278 0.171997C15.734 0.078262 15.6069 0.0256042 15.4743 0.0256042C15.3417 0.0256042 15.2145 0.078262 15.1208 0.171997L11.0248 4.268V1.5C11.0248 1.36739 10.9721 1.24021 10.8783 1.14644C10.7846 1.05268 10.6574 0.999997 10.5248 0.999997C10.3922 0.999997 10.265 1.05268 10.1712 1.14644C10.0775 1.24021 10.0248 1.36739 10.0248 1.5V5.475C10.0248 5.60761 10.0775 5.73478 10.1712 5.82855C10.265 5.92232 10.3922 5.975 10.5248 5.975H14.4998C14.6324 5.975 14.7596 5.92232 14.8533 5.82855C14.9471 5.73478 14.9998 5.60761 14.9998 5.475C14.9998 5.34239 14.9471 5.21521 14.8533 5.12144C14.7596 5.02768 14.6324 4.975 14.4998 4.975H11.7318L15.8278 0.878998C15.9215 0.785234 15.9742 0.65808 15.9742 0.525497C15.9742 0.392915 15.9215 0.265761 15.8278 0.171997Z" fill="white"/>
</g>
<defs>
<clipPath id="clip0_262_4">
<rect width="16" height="16" fill="white"/>
</clipPath>
</defs>
</svg>
