<svg width="36" height="36" viewBox="0 0 36 36" fill="none" xmlns="http://www.w3.org/2000/svg">
<path d="M25.6657 14.362C25.4817 13.6229 24.9395 13.0408 24.2511 12.8433C23.0033 12.4844 18 12.4844 18 12.4844C18 12.4844 12.9967 12.4844 11.7489 12.8433C11.0605 13.0409 10.5183 13.6229 10.3343 14.362C10 15.7016 10 18.4965 10 18.4965C10 18.4965 10 21.2914 10.3343 22.631C10.5183 23.3701 11.0605 23.9279 11.7489 24.1254C12.9967 24.4844 18 24.4844 18 24.4844C18 24.4844 23.0033 24.4844 24.2511 24.1254C24.9395 23.9279 25.4817 23.3701 25.6657 22.631C26 21.2914 26 18.4965 26 18.4965C26 18.4965 26 15.7016 25.6657 14.362V14.362ZM16.3636 21.0341V15.9589L20.5454 18.4966L16.3636 21.0341V21.0341Z" fill="#75757F"/>
</svg>
