<svg width="193" height="80" viewBox="0 0 193 80" fill="none" xmlns="http://www.w3.org/2000/svg">
<path d="M79.1319 0.46582L21.9676 20.5717C17.2267 22.2283 13.2455 23.0566 10.0241 23.0566C6.37729 23.0566 3.73332 22.0024 2.09224 19.8939C1.05896 18.5385 0.75506 16.8191 1.18053 14.7357C1.60599 12.6523 2.73044 10.4309 4.55386 8.0714C6.07338 6.16373 8.5654 3.65364 12.0299 0.541123C10.8143 2.14758 9.96336 3.80424 9.47711 5.5111C8.5654 8.72402 9.38594 11.0835 11.9387 12.5896C13.1543 13.2924 14.8258 13.6438 16.9531 13.6438C18.655 13.6438 20.5696 13.4179 22.6969 12.9661L79.1319 0.46582Z" fill="white"/>
<path d="M22.9944 42.9202V49.9602H11.8744V53.8802H19.8744V60.5602H11.8744V71.2402H2.99438V42.9202H22.9944ZM45.3622 66.9602H35.9222L34.5222 71.2402H25.2022L35.5622 42.9202H45.8022L56.1222 71.2402H46.7622L45.3622 66.9602ZM43.2022 60.2802L40.6422 52.4002L38.0822 60.2802H43.2022ZM70.4197 71.5202C67.033 71.5202 64.233 70.7336 62.0197 69.1602C59.833 67.5602 58.6464 65.2269 58.4597 62.1602H67.8997C68.033 63.7869 68.753 64.6002 70.0597 64.6002C70.5397 64.6002 70.9397 64.4936 71.2597 64.2802C71.6064 64.0402 71.7797 63.6802 71.7797 63.2002C71.7797 62.5336 71.4197 62.0002 70.6997 61.6002C69.9797 61.1736 68.8597 60.6936 67.3397 60.1602C65.5264 59.5202 64.0197 58.8936 62.8197 58.2802C61.6464 57.6669 60.633 56.7736 59.7797 55.6002C58.9264 54.4269 58.513 52.9202 58.5397 51.0802C58.5397 49.2402 59.0064 47.6802 59.9397 46.4002C60.8997 45.0936 62.193 44.1069 63.8197 43.4402C65.473 42.7736 67.3264 42.4402 69.3797 42.4402C72.8464 42.4402 75.593 43.2402 77.6197 44.8402C79.673 46.4402 80.753 48.6936 80.8597 51.6002H71.2997C71.273 50.8002 71.073 50.2269 70.6997 49.8802C70.3264 49.5336 69.873 49.3602 69.3397 49.3602C68.9664 49.3602 68.6597 49.4936 68.4197 49.7602C68.1797 50.0002 68.0597 50.3469 68.0597 50.8002C68.0597 51.4402 68.4064 51.9736 69.0997 52.4002C69.8197 52.8002 70.953 53.2936 72.4997 53.8802C74.2864 54.5469 75.753 55.1869 76.8997 55.8002C78.073 56.4136 79.0864 57.2669 79.9397 58.3602C80.793 59.4536 81.2197 60.8269 81.2197 62.4802C81.2197 64.2136 80.793 65.7736 79.9397 67.1602C79.0864 68.5202 77.8464 69.5869 76.2197 70.3602C74.593 71.1336 72.6597 71.5202 70.4197 71.5202ZM111.74 42.9202V71.2402H102.86V60.2002H94.4197V71.2402H85.5397V42.9202H94.4197V53.1202H102.86V42.9202H111.74ZM125.815 42.9202V71.2402H116.935V42.9202H125.815ZM144.826 71.5202C142.159 71.5202 139.706 70.8936 137.466 69.6402C135.252 68.3869 133.492 66.6536 132.186 64.4402C130.879 62.2269 130.226 59.7336 130.226 56.9602C130.226 54.1869 130.879 51.6936 132.186 49.4802C133.492 47.2669 135.252 45.5469 137.466 44.3202C139.706 43.0669 142.159 42.4402 144.826 42.4402C147.492 42.4402 149.932 43.0669 152.146 44.3202C154.359 45.5469 156.106 47.2669 157.386 49.4802C158.692 51.6936 159.346 54.1869 159.346 56.9602C159.346 59.7336 158.692 62.2269 157.386 64.4402C156.106 66.6536 154.346 68.3869 152.106 69.6402C149.892 70.8936 147.466 71.5202 144.826 71.5202ZM144.826 63.2402C146.586 63.2402 147.946 62.6802 148.906 61.5602C149.866 60.4136 150.346 58.8802 150.346 56.9602C150.346 55.0136 149.866 53.4802 148.906 52.3602C147.946 51.2136 146.586 50.6402 144.826 50.6402C143.039 50.6402 141.666 51.2136 140.706 52.3602C139.746 53.4802 139.266 55.0136 139.266 56.9602C139.266 58.8802 139.746 60.4136 140.706 61.5602C141.666 62.6802 143.039 63.2402 144.826 63.2402ZM190.909 71.2402H182.029L172.629 57.0002V71.2402H163.749V42.9202H172.629L182.029 57.4002V42.9202H190.909V71.2402Z" fill="white"/>
</svg>
