<svg width="210" height="79" viewBox="0 0 210 79" fill="none" xmlns="http://www.w3.org/2000/svg">
<path d="M75.7065 51.5658C73.3498 51.5658 71.2666 51.091 69.4569 50.1422C67.6467 49.1714 66.2476 47.8016 65.2585 46.0331C64.2699 44.2644 63.7754 42.1829 63.7754 39.7888C63.7754 37.3945 64.2699 35.3131 65.2585 33.5444C66.2476 31.7541 67.6467 30.3845 69.4569 29.4354C71.2666 28.4648 73.3498 27.9795 75.7065 27.9795C77.3062 27.9795 78.7158 28.1521 79.9365 28.4971C81.1781 28.8207 82.3142 29.3384 83.3453 30.0501V34.7415C82.4197 33.965 81.3571 33.4042 80.1575 33.0591C78.9789 32.6924 77.6322 32.5091 76.1171 32.5091C74.7075 32.5091 73.4338 32.8111 72.2977 33.415C71.1826 33.9974 70.2985 34.8386 69.6465 35.9386C68.9939 37.0386 68.6679 38.322 68.6679 39.7888C68.6679 41.2771 68.9624 42.582 69.5514 43.7036C70.162 44.8036 71.0141 45.6557 72.1082 46.2596C73.2023 46.8635 74.4654 47.1655 75.8961 47.1655C77.2007 47.1655 78.3368 46.9283 79.3049 46.4537V42.0859H75.738V38.4622H83.9448V49.3656C81.8616 50.8323 79.1159 51.5658 75.7065 51.5658Z" fill="#81818B"/>
<path d="M85.0531 35.5504H89.6615V37.7828C90.2721 37.0279 91.1242 36.4563 92.2183 36.0681C93.3124 35.6582 94.5545 35.4534 95.9432 35.4534V39.1741C94.491 39.1741 93.2074 39.4005 92.0923 39.8535C90.9977 40.3065 90.2401 40.9967 89.8196 41.9241V51.0805H85.0531V35.5504Z" fill="#81818B"/>
<path d="M105.103 51.566C102.199 51.566 99.9153 50.8539 98.2531 49.4302C96.5905 47.9855 95.7594 45.9685 95.7594 43.3802C95.7594 40.8134 96.496 38.7859 97.9691 37.2976C99.4633 35.8093 101.588 35.0652 104.345 35.0652C106.155 35.0652 107.691 35.4103 108.954 36.1005C110.216 36.7907 111.174 37.7506 111.826 38.98C112.479 40.1879 112.805 41.5576 112.805 43.089V45.0626H100.305C100.641 47.047 102.451 48.0394 105.734 48.0394C106.702 48.0394 107.702 47.953 108.733 47.7803C109.764 47.6078 110.658 47.3705 111.416 47.0686V50.4983C110.679 50.8214 109.732 51.0806 108.575 51.2749C107.418 51.4686 106.26 51.566 105.103 51.566ZM108.291 41.8919C108.228 40.8566 107.849 40.0585 107.155 39.4977C106.46 38.9153 105.502 38.6241 104.282 38.6241C103.083 38.6241 102.136 38.9153 101.441 39.4977C100.747 40.0801 100.368 40.8781 100.305 41.8919H108.291Z" fill="#81818B"/>
<path d="M122.574 51.566C119.671 51.566 117.387 50.8539 115.725 49.4302C114.063 47.9855 113.231 45.9685 113.231 43.3802C113.231 40.8134 113.968 38.7859 115.441 37.2976C116.935 35.8093 119.06 35.0652 121.817 35.0652C123.626 35.0652 125.163 35.4103 126.426 36.1005C127.688 36.7907 128.645 37.7506 129.298 38.98C129.95 40.1879 130.276 41.5576 130.276 43.089V45.0626H117.776C118.113 47.047 119.923 48.0394 123.206 48.0394C124.174 48.0394 125.174 47.953 126.204 47.7803C127.235 47.6078 128.13 47.3705 128.888 47.0686V50.4983C128.151 50.8214 127.204 51.0806 126.047 51.2749C124.889 51.4686 123.732 51.566 122.574 51.566ZM125.763 41.8919C125.699 40.8566 125.321 40.0585 124.627 39.4977C123.932 38.9153 122.974 38.6241 121.754 38.6241C120.554 38.6241 119.608 38.9153 118.913 39.4977C118.218 40.0801 117.84 40.8781 117.776 41.8919H125.763Z" fill="#81818B"/>
<path d="M131.334 35.5505H135.942V37.4594C136.637 36.6613 137.458 36.0682 138.405 35.6799C139.373 35.2701 140.383 35.0652 141.435 35.0652C143.498 35.0652 145.034 35.6368 146.043 36.7799C147.075 37.9016 147.591 39.4222 147.591 41.3419V51.0806H142.824V41.8919C142.824 39.8859 141.919 38.883 140.109 38.883C139.31 38.883 138.563 39.0879 137.868 39.4977C137.174 39.8859 136.584 40.4683 136.1 41.2448V51.0806H131.334V35.5505Z" fill="#81818B"/>
<path d="M151.795 33.1564C151.059 33.1564 150.439 32.9084 149.934 32.4122C149.428 31.9162 149.176 31.2906 149.176 30.5357C149.176 29.8024 149.428 29.1876 149.934 28.6915C150.439 28.1739 151.059 27.915 151.795 27.915C152.532 27.915 153.153 28.1739 153.658 28.6915C154.163 29.1876 154.416 29.8024 154.416 30.5357C154.416 31.2906 154.163 31.9162 153.658 32.4122C153.153 32.9084 152.532 33.1564 151.795 33.1564ZM149.397 35.5506H154.195V51.0807H149.397V35.5506Z" fill="#81818B"/>
<path d="M162.324 51.566C161.188 51.566 159.967 51.4362 158.662 51.1775C157.379 50.9403 156.369 50.5952 155.632 50.1423V46.3244C156.474 46.8421 157.484 47.2627 158.662 47.5862C159.841 47.9096 160.935 48.0714 161.945 48.0714C162.808 48.0714 163.439 47.996 163.839 47.8452C164.238 47.6941 164.438 47.4137 164.438 47.0039C164.438 46.6803 164.323 46.4215 164.091 46.2274C163.86 46.0117 163.502 45.8283 163.018 45.6774C162.555 45.5048 161.776 45.2567 160.682 44.9332C159.399 44.5449 158.388 44.1567 157.652 43.7685C156.937 43.3586 156.39 42.8518 156.011 42.2478C155.653 41.6439 155.474 40.8673 155.474 39.9183C155.474 38.3005 156.095 37.0927 157.337 36.2946C158.599 35.475 160.303 35.0652 162.45 35.0652C163.502 35.0652 164.586 35.1838 165.701 35.4211C166.837 35.6368 167.711 35.928 168.321 36.2946V40.0154C167.711 39.6055 166.911 39.2712 165.922 39.0124C164.954 38.7536 164.007 38.6241 163.081 38.6241C162.218 38.6241 161.545 38.7104 161.061 38.883C160.599 39.0555 160.366 39.3791 160.366 39.8536C160.366 40.2634 160.587 40.5762 161.03 40.7919C161.492 41.0076 162.345 41.2772 163.586 41.6008L164.218 41.7625C165.543 42.1292 166.574 42.539 167.311 42.992C168.047 43.4233 168.563 43.9518 168.858 44.5773C169.173 45.1813 169.331 45.947 169.331 46.8744C169.331 48.2981 168.731 49.4411 167.532 50.3041C166.333 51.145 164.596 51.566 162.324 51.566Z" fill="#81818B"/>
<path d="M170.433 27.1707H175.199V37.3299C175.915 36.5749 176.725 36.0141 177.63 35.6475C178.535 35.2592 179.503 35.0651 180.534 35.0651C182.596 35.0651 184.132 35.6366 185.142 36.7798C186.173 37.9014 186.689 39.4221 186.689 41.3418V51.0805H181.923V41.8918C181.923 39.8858 181.018 38.8829 179.208 38.8829C178.408 38.8829 177.662 39.0878 176.967 39.4976C176.272 39.8858 175.683 40.4682 175.199 41.2447V51.0805H170.433V27.1707Z" fill="#81818B"/>
<path fill-rule="evenodd" clip-rule="evenodd" d="M47.4972 31.7486C47.4972 35.8583 44.2471 39.19 40.2375 39.19C36.2279 39.19 32.9775 35.8583 32.9775 31.7486C32.9775 27.6388 36.2279 24.3071 40.2375 24.3071C44.2471 24.3071 47.4972 27.6388 47.4972 31.7486ZM23.3502 38.6492C31.2598 38.1027 38.1532 44.1727 38.7953 52.2971C38.8618 53.1389 38.8586 53.97 38.7907 54.7848C30.8812 55.3313 23.9877 49.2612 23.3456 41.1368C23.2792 40.2949 23.2823 39.4637 23.3502 38.6492ZM43.9083 54.5002C51.8346 53.8419 57.7563 46.7764 57.2234 38.6691C56.4285 38.5995 55.6179 38.5962 54.7963 38.6644C46.87 39.3225 40.9482 46.3883 41.4814 54.4955C42.2761 54.5653 43.0869 54.5685 43.9083 54.5002Z" fill="#81818B"/>
</svg>
