<svg width="153" height="123" viewBox="0 0 153 123" fill="none" xmlns="http://www.w3.org/2000/svg">
<rect x="0.115601" y="0.484375" width="12.4679" height="10" rx="5" fill="#81818B" fill-opacity="0.2"/>
<rect x="20.0643" y="0.484375" width="12.4679" height="10" rx="5" fill="#81818B" fill-opacity="0.2"/>
<rect x="40.0131" y="0.484375" width="12.4679" height="10" rx="5" fill="#81818B" fill-opacity="0.2"/>
<rect x="59.9618" y="0.484375" width="12.4679" height="10" rx="5" fill="#81818B" fill-opacity="0.2"/>
<rect x="79.9105" y="0.484375" width="12.4679" height="10" rx="5" fill="#81818B" fill-opacity="0.2"/>
<rect x="99.8593" y="0.484375" width="12.4679" height="10" rx="5" fill="#81818B" fill-opacity="0.2"/>
<rect x="119.808" y="0.484375" width="12.4679" height="10" rx="5" fill="#81818B" fill-opacity="0.2"/>
<rect x="139.757" y="0.484375" width="12.4679" height="10" rx="5" fill="#81818B" fill-opacity="0.2"/>
<rect x="0.115601" y="16.4844" width="12.4679" height="10" rx="5" fill="#81818B" fill-opacity="0.2"/>
<rect x="20.0643" y="16.4844" width="12.4679" height="10" rx="5" fill="#81818B" fill-opacity="0.2"/>
<rect x="40.0131" y="16.4844" width="12.4679" height="10" rx="5" fill="#81818B" fill-opacity="0.2"/>
<rect x="59.9618" y="16.4844" width="12.4679" height="10" rx="5" fill="#81818B" fill-opacity="0.2"/>
<rect x="79.9105" y="16.4844" width="12.4679" height="10" rx="5" fill="#81818B" fill-opacity="0.2"/>
<rect x="99.8593" y="16.4844" width="12.4679" height="10" rx="5" fill="#81818B" fill-opacity="0.2"/>
<rect x="119.808" y="16.4844" width="12.4679" height="10" rx="5" fill="#81818B" fill-opacity="0.2"/>
<rect x="139.757" y="16.4844" width="12.4679" height="10" rx="5" fill="#81818B" fill-opacity="0.2"/>
<rect x="0.115601" y="32.4844" width="12.4679" height="10" rx="5" fill="#81818B" fill-opacity="0.2"/>
<rect x="20.0643" y="32.4844" width="12.4679" height="10" rx="5" fill="#81818B" fill-opacity="0.2"/>
<rect x="40.0131" y="32.4844" width="12.4679" height="10" rx="5" fill="#81818B" fill-opacity="0.2"/>
<rect x="59.9618" y="32.4844" width="12.4679" height="10" rx="5" fill="#81818B" fill-opacity="0.2"/>
<rect x="79.9105" y="32.4844" width="12.4679" height="10" rx="5" fill="#81818B" fill-opacity="0.2"/>
<rect x="99.8593" y="32.4844" width="12.4679" height="10" rx="5" fill="#81818B" fill-opacity="0.2"/>
<rect x="119.808" y="32.4844" width="12.4679" height="10" rx="5" fill="#81818B" fill-opacity="0.2"/>
<rect x="139.757" y="32.4844" width="12.4679" height="10" rx="5" fill="#81818B" fill-opacity="0.2"/>
<rect x="0.115601" y="48.4844" width="12.4679" height="10" rx="5" fill="#81818B" fill-opacity="0.2"/>
<rect x="20.0643" y="48.4844" width="12.4679" height="10" rx="5" fill="#81818B" fill-opacity="0.2"/>
<rect x="40.0131" y="48.4844" width="12.4679" height="10" rx="5" fill="#81818B" fill-opacity="0.2"/>
<rect x="59.9618" y="48.4844" width="12.4679" height="10" rx="5" fill="#81818B" fill-opacity="0.2"/>
<rect x="79.9105" y="48.4844" width="12.4679" height="10" rx="5" fill="#81818B" fill-opacity="0.2"/>
<rect x="99.8593" y="48.4844" width="12.4679" height="10" rx="5" fill="#81818B" fill-opacity="0.2"/>
<rect x="119.808" y="48.4844" width="12.4679" height="10" rx="5" fill="#81818B" fill-opacity="0.2"/>
<rect x="139.757" y="48.4844" width="12.4679" height="10" rx="5" fill="#81818B" fill-opacity="0.2"/>
<rect x="0.115601" y="64.4844" width="12.4679" height="10" rx="5" fill="#81818B" fill-opacity="0.2"/>
<rect x="20.0643" y="64.4844" width="12.4679" height="10" rx="5" fill="#81818B" fill-opacity="0.2"/>
<rect x="40.0131" y="64.4844" width="12.4679" height="10" rx="5" fill="#81818B" fill-opacity="0.2"/>
<rect x="59.9618" y="64.4844" width="12.4679" height="10" rx="5" fill="#81818B" fill-opacity="0.2"/>
<rect x="79.9105" y="64.4844" width="12.4679" height="10" rx="5" fill="#81818B" fill-opacity="0.2"/>
<rect x="99.8593" y="64.4844" width="12.4679" height="10" rx="5" fill="#81818B" fill-opacity="0.2"/>
<rect x="119.808" y="64.4844" width="12.4679" height="10" rx="5" fill="#81818B" fill-opacity="0.2"/>
<rect x="139.757" y="64.4844" width="12.4679" height="10" rx="5" fill="#81818B" fill-opacity="0.2"/>
<rect x="0.115601" y="80.4844" width="12.4679" height="10" rx="5" fill="#81818B" fill-opacity="0.2"/>
<rect x="20.0643" y="80.4844" width="12.4679" height="10" rx="5" fill="#81818B" fill-opacity="0.2"/>
<rect x="40.0131" y="80.4844" width="12.4679" height="10" rx="5" fill="#81818B" fill-opacity="0.2"/>
<rect x="59.9618" y="80.4844" width="12.4679" height="10" rx="5" fill="#81818B" fill-opacity="0.2"/>
<rect x="79.9105" y="80.4844" width="12.4679" height="10" rx="5" fill="#81818B" fill-opacity="0.2"/>
<rect x="99.8593" y="80.4844" width="12.4679" height="10" rx="5" fill="#81818B" fill-opacity="0.2"/>
<rect x="119.808" y="80.4844" width="12.4679" height="10" rx="5" fill="#81818B" fill-opacity="0.2"/>
<rect x="139.757" y="80.4844" width="12.4679" height="10" rx="5" fill="#81818B" fill-opacity="0.2"/>
<rect x="0.115601" y="96.4844" width="12.4679" height="10" rx="5" fill="#81818B" fill-opacity="0.2"/>
<rect x="20.0643" y="96.4844" width="12.4679" height="10" rx="5" fill="#81818B" fill-opacity="0.2"/>
<rect x="40.0131" y="96.4844" width="12.4679" height="10" rx="5" fill="#81818B" fill-opacity="0.2"/>
<rect x="59.9618" y="96.4844" width="12.4679" height="10" rx="5" fill="#81818B" fill-opacity="0.2"/>
<rect x="79.9105" y="96.4844" width="12.4679" height="10" rx="5" fill="#81818B" fill-opacity="0.2"/>
<rect x="99.8593" y="96.4844" width="12.4679" height="10" rx="5" fill="#81818B" fill-opacity="0.2"/>
<rect x="119.808" y="96.4844" width="12.4679" height="10" rx="5" fill="#81818B" fill-opacity="0.2"/>
<rect x="139.757" y="96.4844" width="12.4679" height="10" rx="5" fill="#81818B" fill-opacity="0.2"/>
<rect x="0.115601" y="112.484" width="12.4679" height="10" rx="5" fill="#81818B" fill-opacity="0.2"/>
<rect x="20.0643" y="112.484" width="12.4679" height="10" rx="5" fill="#81818B" fill-opacity="0.2"/>
<rect x="40.0131" y="112.484" width="12.4679" height="10" rx="5" fill="#81818B" fill-opacity="0.2"/>
<rect x="59.9618" y="112.484" width="12.4679" height="10" rx="5" fill="#81818B" fill-opacity="0.2"/>
<rect x="79.9105" y="112.484" width="12.4679" height="10" rx="5" fill="#81818B" fill-opacity="0.2"/>
<rect x="99.8593" y="112.484" width="12.4679" height="10" rx="5" fill="#81818B" fill-opacity="0.2"/>
<rect x="119.808" y="112.484" width="12.4679" height="10" rx="5" fill="#81818B" fill-opacity="0.2"/>
<rect x="139.757" y="112.484" width="12.4679" height="10" rx="5" fill="#81818B" fill-opacity="0.2"/>
</svg>
