<svg width="76" height="76" viewBox="0 0 76 76" fill="none" xmlns="http://www.w3.org/2000/svg">
<path opacity="0.06" d="M54.6848 0H20.9089C9.36124 0 0 9.36124 0 20.9089V54.6848C0 66.2325 9.36124 75.5938 20.9089 75.5938H54.6848C66.2325 75.5938 75.5938 66.2325 75.5938 54.6848V20.9089C75.5938 9.36124 66.2325 0 54.6848 0Z" fill="#FF7A00"/>
<path d="M37.7969 63.5373C52.013 63.5373 63.5373 52.013 63.5373 37.7969C63.5373 23.5809 52.013 12.0565 37.7969 12.0565C23.5809 12.0565 12.0565 23.5809 12.0565 37.7969C12.0565 52.013 23.5809 63.5373 37.7969 63.5373Z" fill="#FF7A00"/>
<path fill-rule="evenodd" clip-rule="evenodd" d="M24.3871 32.7031H29.0329V50.8642H24.3871C23.6876 50.8642 23.1205 50.3241 23.1205 49.6579V33.9093C23.1205 33.2432 23.6876 32.7031 24.3871 32.7031Z" stroke="white" stroke-width="1.60838" stroke-linecap="round" stroke-linejoin="round"/>
<path fill-rule="evenodd" clip-rule="evenodd" d="M51.0609 47.464C50.7668 49.7275 49.2545 50.8642 46.566 50.8642H32.4984C30.5871 50.8642 29.0328 49.4013 29.0328 47.6024V32.7248C33.4941 32.2899 35.7247 30.7326 35.7247 26.5447V24.5379C35.7247 22.4226 37.5252 20.7079 39.7462 20.7079C40.5926 20.7079 41.4173 20.9621 42.1032 21.4346C43.0483 22.087 43.6506 23.3225 43.6506 25.1016V30.9108C43.6506 31.405 44.4871 31.8102 45.3236 31.8102H49.8111C51.7015 31.8102 53.2347 33.2336 53.2767 35.0029C53.3048 36.1824 52.5661 39.8335 51.0609 47.464Z" stroke="white" stroke-width="1.60838" stroke-linecap="round" stroke-linejoin="round"/>
</svg>
