<svg width="76" height="76" viewBox="0 0 76 76" fill="none" xmlns="http://www.w3.org/2000/svg">
<path opacity="0.06" d="M54.6848 0H20.9089C9.36124 0 0 9.36124 0 20.9089V54.6848C0 66.2325 9.36124 75.5938 20.9089 75.5938H54.6848C66.2325 75.5938 75.5938 66.2325 75.5938 54.6848V20.9089C75.5938 9.36124 66.2325 0 54.6848 0Z" fill="#FF7A00"/>
<path d="M37.797 63.5374C52.0131 63.5374 63.5374 52.013 63.5374 37.797C63.5374 23.5809 52.0131 12.0566 37.797 12.0566C23.581 12.0566 12.0566 23.5809 12.0566 37.797C12.0566 52.013 23.581 63.5374 37.797 63.5374Z" fill="#FF7A00"/>
<path fill-rule="evenodd" clip-rule="evenodd" d="M40.5539 44.1698C38.7109 45.3886 36.4812 46.0595 34.1054 45.9614C28.0962 45.7132 23.4258 40.6402 23.674 34.6308C23.9222 28.6213 28.995 23.9517 35.0041 24.1999C41.0123 24.448 45.6838 29.5201 45.4356 35.5295C45.3481 37.6479 44.661 39.5998 43.5447 41.2286L50.8813 48.3521C51.7865 49.3335 51.7541 50.8506 50.8241 51.7906L50.7813 51.8299L50.7361 51.8691C49.7251 52.7185 48.2105 52.6275 47.3062 51.6453L40.5539 44.1698ZM34.2091 43.4497C29.5869 43.2588 25.9941 39.3564 26.185 34.7341C26.3759 30.1119 30.2782 26.5191 34.9005 26.71C39.5227 26.9009 43.1156 30.8033 42.9247 35.4255C42.7338 40.0477 38.8314 43.6405 34.2091 43.4497Z" fill="white"/>
</svg>
