<svg width="28" height="28" viewBox="0 0 28 28" fill="none" xmlns="http://www.w3.org/2000/svg">
<path d="M18.6666 22.1667C17.7383 22.1667 16.8481 21.798 16.1917 21.1416C15.5353 20.4852 15.1666 19.595 15.1666 18.6667C15.1666 17.7385 15.5353 16.8482 16.1917 16.1918C16.8481 15.5355 17.7383 15.1667 18.6666 15.1667C19.5948 15.1667 20.4851 15.5355 21.1415 16.1918C21.7978 16.8482 22.1666 17.7385 22.1666 18.6667C22.1666 19.595 21.7978 20.4852 21.1415 21.1416C20.4851 21.798 19.5948 22.1667 18.6666 22.1667ZM9.33325 22.1667C8.40499 22.1667 7.51476 21.798 6.85838 21.1416C6.202 20.4852 5.83325 19.595 5.83325 18.6667C5.83325 17.7385 6.202 16.8482 6.85838 16.1918C7.51476 15.5355 8.40499 15.1667 9.33325 15.1667C10.2615 15.1667 11.1517 15.5355 11.8081 16.1918C12.4645 16.8482 12.8333 17.7385 12.8333 18.6667C12.8333 19.595 12.4645 20.4852 11.8081 21.1416C11.1517 21.798 10.2615 22.1667 9.33325 22.1667ZM18.6666 12.8334C17.7383 12.8334 16.8481 12.4646 16.1917 11.8082C15.5353 11.1519 15.1666 10.2616 15.1666 9.33337C15.1666 8.40512 15.5353 7.51488 16.1917 6.8585C16.8481 6.20212 17.7383 5.83337 18.6666 5.83337C19.5948 5.83337 20.4851 6.20212 21.1415 6.8585C21.7978 7.51488 22.1666 8.40512 22.1666 9.33337C22.1666 10.2616 21.7978 11.1519 21.1415 11.8082C20.4851 12.4646 19.5948 12.8334 18.6666 12.8334ZM9.33325 12.8334C8.40499 12.8334 7.51476 12.4646 6.85838 11.8082C6.202 11.1519 5.83325 10.2616 5.83325 9.33337C5.83325 8.40512 6.202 7.51488 6.85838 6.8585C7.51476 6.20212 8.40499 5.83337 9.33325 5.83337C10.2615 5.83337 11.1517 6.20212 11.8081 6.8585C12.4645 7.51488 12.8333 8.40512 12.8333 9.33337C12.8333 10.2616 12.4645 11.1519 11.8081 11.8082C11.1517 12.4646 10.2615 12.8334 9.33325 12.8334Z" fill="white"/>
</svg>
