<svg width="23" height="19" viewBox="0 0 23 19" fill="none" xmlns="http://www.w3.org/2000/svg">
<path d="M21.1461 0.321533C21.3976 0.321533 21.6366 0.321533 21.8881 0.321533C22.2528 0.443113 22.5044 0.674116 22.6301 1.03886C22.6301 2.35193 22.6301 3.67716 22.6301 4.99023C22.4541 5.46439 22.1019 5.68324 21.5737 5.69539C20.8946 5.70755 20.3789 6.03582 19.9765 6.54646C19.5615 7.08141 19.3351 7.70147 19.1842 8.34585C18.9704 9.20907 18.8949 10.0845 18.8446 10.9841C18.9452 10.9841 19.0333 10.9841 19.1087 10.9841C19.9388 10.9841 20.7688 10.9841 21.5989 10.9841C21.9762 10.9841 22.278 11.0936 22.4792 11.4218C22.5295 11.5069 22.5672 11.592 22.6176 11.6772C22.6301 14.3033 22.6301 16.9538 22.6301 19.6042C22.4415 20.1392 22.0516 20.3215 21.4731 20.3215C19.0333 20.3094 16.5934 20.3094 14.1536 20.3215C13.5499 20.3215 13.0343 20.0297 13.0343 19.2395C13.0595 16.8322 13.0469 14.4249 13.0469 12.0176C13.0469 10.5221 13.1601 9.0267 13.4996 7.55558C13.8895 5.87776 14.5309 4.32153 15.6754 2.99631C16.7821 1.70755 18.1781 0.856487 19.8885 0.503904C20.3035 0.418797 20.7311 0.382322 21.1461 0.321533Z" fill="#113869"/>
<path d="M8.45629 0.321095C8.72039 0.321095 8.97192 0.321095 9.23603 0.321095C9.26118 0.333252 9.29891 0.357567 9.32406 0.369726C9.72651 0.515623 9.9403 0.807415 9.9403 1.22079C9.9403 1.36669 9.9403 1.51258 9.9403 1.65848C9.9403 2.67976 9.9403 3.68888 9.9403 4.71015C9.9403 5.29374 9.63847 5.60985 9.05995 5.6828C8.821 5.70711 8.56947 5.73143 8.33052 5.80438C7.6514 6.01106 7.2238 6.49739 6.92196 7.09313C6.45663 8.00498 6.29314 8.98979 6.19253 9.98675C6.1548 10.315 6.14222 10.6311 6.12965 10.9837C6.24284 10.9837 6.31829 10.9837 6.40633 10.9837C7.23637 10.9837 8.07899 10.9837 8.90904 10.9837C9.60074 10.9837 9.95288 11.3241 9.95288 11.9928C9.95288 14.4366 9.95288 16.8804 9.95288 19.3241C9.95288 19.9928 9.58817 20.3333 8.90904 20.3333C6.41891 20.3333 3.92877 20.3333 1.42606 20.3333C0.734361 20.3333 0.369645 19.9807 0.369645 19.312C0.369645 16.856 0.369645 14.4001 0.369645 11.9442C0.369645 10.5825 0.482834 9.22079 0.759515 7.87125C1.06135 6.40012 1.5644 5.0141 2.43218 3.76182C3.62694 2.03538 5.23672 0.892523 7.36214 0.503466C7.72685 0.4062 8.09157 0.369726 8.45629 0.321095Z" fill="#113869"/>
</svg>
