<svg width="23" height="23" viewBox="0 0 23 23" fill="none" xmlns="http://www.w3.org/2000/svg">
<path d="M11.9404 6.19263C8.83496 6.19263 6.33008 8.69751 6.33008 11.803C6.33008 14.9084 8.83496 17.4133 11.9404 17.4133C15.0459 17.4133 17.5508 14.9084 17.5508 11.803C17.5508 8.69751 15.0459 6.19263 11.9404 6.19263ZM11.9404 15.4504C9.93359 15.4504 8.29297 13.8147 8.29297 11.803C8.29297 9.79126 9.92871 8.15552 11.9404 8.15552C13.9521 8.15552 15.5879 9.79126 15.5879 11.803C15.5879 13.8147 13.9473 15.4504 11.9404 15.4504ZM19.0889 5.96313C19.0889 6.69067 18.5029 7.27173 17.7803 7.27173C17.0527 7.27173 16.4717 6.68579 16.4717 5.96313C16.4717 5.24048 17.0576 4.65454 17.7803 4.65454C18.5029 4.65454 19.0889 5.24048 19.0889 5.96313ZM22.8047 7.29126C22.7217 5.53833 22.3213 3.9856 21.0371 2.7063C19.7578 1.427 18.2051 1.02661 16.4521 0.938721C14.6455 0.836182 9.23047 0.836182 7.42383 0.938721C5.67578 1.02173 4.12305 1.42212 2.83887 2.70142C1.55469 3.98071 1.15918 5.53345 1.07129 7.28638C0.96875 9.09302 0.96875 14.5081 1.07129 16.3147C1.1543 18.0676 1.55469 19.6204 2.83887 20.8997C4.12305 22.179 5.6709 22.5793 7.42383 22.6672C9.23047 22.7698 14.6455 22.7698 16.4521 22.6672C18.2051 22.5842 19.7578 22.1838 21.0371 20.8997C22.3164 19.6204 22.7168 18.0676 22.8047 16.3147C22.9072 14.5081 22.9072 9.0979 22.8047 7.29126ZM20.4707 18.2532C20.0898 19.2102 19.3525 19.9475 18.3906 20.3333C16.9502 20.9045 13.5322 20.7727 11.9404 20.7727C10.3486 20.7727 6.92578 20.8997 5.49023 20.3333C4.5332 19.9524 3.7959 19.2151 3.41016 18.2532C2.83887 16.8127 2.9707 13.3948 2.9707 11.803C2.9707 10.2112 2.84375 6.78833 3.41016 5.35278C3.79102 4.39575 4.52832 3.65845 5.49023 3.2727C6.93066 2.70142 10.3486 2.83325 11.9404 2.83325C13.5322 2.83325 16.9551 2.7063 18.3906 3.2727C19.3477 3.65356 20.085 4.39087 20.4707 5.35278C21.042 6.79321 20.9102 10.2112 20.9102 11.803C20.9102 13.3948 21.042 16.8176 20.4707 18.2532Z" fill="#113869"/>
</svg>
