<svg width="36" height="36" viewBox="0 0 36 36" fill="none" xmlns="http://www.w3.org/2000/svg">
<path fill-rule="evenodd" clip-rule="evenodd" d="M14.8 10.4844H21.2C23.851 10.4844 26 12.6334 26 15.2844V21.6844C26 24.3353 23.851 26.4844 21.2 26.4844H14.8C12.149 26.4844 10 24.3353 10 21.6844V15.2844C10 12.6334 12.149 10.4844 14.8 10.4844ZM14.8 12.0844C13.0327 12.0844 11.6 13.5171 11.6 15.2844V21.6844C11.6 23.4517 13.0327 24.8844 14.8 24.8844H21.2C22.9673 24.8844 24.4 23.4517 24.4 21.6844V15.2844C24.4 13.5171 22.9673 12.0844 21.2 12.0844H14.8ZM18 22.4844C15.7909 22.4844 14 20.6935 14 18.4844C14 16.2752 15.7909 14.4844 18 14.4844C20.2091 14.4844 22 16.2752 22 18.4844C22 20.6935 20.2091 22.4844 18 22.4844ZM18 20.8844C19.3255 20.8844 20.4 19.8099 20.4 18.4844C20.4 17.1589 19.3255 16.0844 18 16.0844C16.6745 16.0844 15.6 17.1589 15.6 18.4844C15.6 19.8099 16.6745 20.8844 18 20.8844ZM22 15.2844C21.5582 15.2844 21.2 14.9262 21.2 14.4844C21.2 14.0425 21.5582 13.6844 22 13.6844C22.4418 13.6844 22.8 14.0425 22.8 14.4844C22.8 14.9262 22.4418 15.2844 22 15.2844Z" fill="#75757F"/>
</svg>
