<svg width="39" height="41" viewBox="0 0 39 41" fill="none" xmlns="http://www.w3.org/2000/svg">
<path d="M19.1438 10.4319C13.7316 10.4319 9.36609 14.9272 9.36609 20.5002C9.36609 26.0733 13.7316 30.5686 19.1438 30.5686C24.556 30.5686 28.9215 26.0733 28.9215 20.5002C28.9215 14.9272 24.556 10.4319 19.1438 10.4319ZM19.1438 27.046C15.6463 27.046 12.787 24.1105 12.787 20.5002C12.787 16.89 15.6378 13.9545 19.1438 13.9545C22.6498 13.9545 25.5006 16.89 25.5006 20.5002C25.5006 24.1105 22.6413 27.046 19.1438 27.046V27.046ZM31.602 10.0201C31.602 11.3257 30.5809 12.3685 29.3214 12.3685C28.0535 12.3685 27.0408 11.3169 27.0408 10.0201C27.0408 8.72318 28.062 7.67165 29.3214 7.67165C30.5809 7.67165 31.602 8.72318 31.602 10.0201ZM38.078 12.4035C37.9333 9.2577 37.2355 6.47117 34.9974 4.17534C32.7679 1.87952 30.0618 1.16098 27.0068 1.00325C23.8582 0.81923 14.4209 0.81923 11.2723 1.00325C8.22579 1.15221 5.51969 1.87075 3.28163 4.16658C1.04357 6.4624 0.354281 9.24894 0.201106 12.3947C0.0224015 15.6369 0.0224015 25.3548 0.201106 28.597C0.345772 31.7428 1.04357 34.5293 3.28163 36.8251C5.51969 39.121 8.21728 39.8395 11.2723 39.9972C14.4209 40.1812 23.8582 40.1812 27.0068 39.9972C30.0618 39.8483 32.7679 39.1297 34.9974 36.8251C37.227 34.5293 37.9248 31.7428 38.078 28.597C38.2567 25.3548 38.2567 15.6457 38.078 12.4035V12.4035ZM34.0103 32.0757C33.3465 33.7932 32.0616 35.1164 30.3851 35.8087C27.8748 36.8339 21.918 36.5973 19.1438 36.5973C16.3696 36.5973 10.4043 36.8251 7.90242 35.8087C6.23451 35.1252 4.94954 33.802 4.27727 32.0757C3.28163 29.4908 3.51139 23.3569 3.51139 20.5002C3.51139 17.6436 3.29014 11.501 4.27727 8.92472C4.94103 7.20723 6.226 5.88407 7.90242 5.19181C10.4128 4.16658 16.3696 4.40317 19.1438 4.40317C21.918 4.40317 27.8833 4.17534 30.3851 5.19181C32.0531 5.8753 33.338 7.19847 34.0103 8.92472C35.0059 11.5097 34.7762 17.6436 34.7762 20.5002C34.7762 23.3569 35.0059 29.4995 34.0103 32.0757Z" fill="white"/>
</svg>
