<svg width="36" height="36" viewBox="0 0 36 36" fill="none" xmlns="http://www.w3.org/2000/svg">
<path d="M14.2051 12.2341C14.2049 12.632 14.0467 13.0134 13.7652 13.2946C13.4838 13.5758 13.1022 13.7336 12.7043 13.7334C12.3065 13.7332 11.9251 13.575 11.6439 13.2935C11.3627 13.0121 11.2049 12.6305 11.2051 12.2326C11.2053 11.8348 11.3635 11.4534 11.6449 11.1722C11.9264 10.891 12.308 10.7332 12.7058 10.7334C13.1037 10.7336 13.4851 10.8918 13.7663 11.1733C14.0474 11.4547 14.2053 11.8363 14.2051 12.2341V12.2341ZM14.2501 14.8441H11.2501V24.2341H14.2501V14.8441ZM18.9901 14.8441H16.0051V24.2341H18.9601V19.3066C18.9601 16.5616 22.5376 16.3066 22.5376 19.3066V24.2341H25.5001V18.2866C25.5001 13.6591 20.2051 13.8316 18.9601 16.1041L18.9901 14.8441V14.8441Z" fill="#75757F"/>
</svg>
