<svg width="35" height="29" viewBox="0 0 35 29" fill="none" xmlns="http://www.w3.org/2000/svg">
<path d="M25.2461 0C21.9116 0 19.0623 2.25398 17.4968 3.80793C15.9314 2.25398 13.0884 0 9.75546 0C4.01068 0 0 3.79737 0 9.23317C0 15.2227 4.98114 19.094 9.8 22.8385C12.075 24.6082 14.4295 26.4367 16.2352 28.4644C16.5391 28.8039 16.9845 29 17.4523 29H17.5445C18.0139 29 18.4577 28.8024 18.76 28.4644C20.5689 26.4367 22.9218 24.6067 25.1984 22.8385C30.0157 19.0955 35 15.2242 35 9.23317C35 3.79737 30.9893 0 25.2461 0Z" fill="#FB4B29"/>
</svg>
