<svg width="19" height="18" viewBox="0 0 19 18" fill="none" xmlns="http://www.w3.org/2000/svg">
<path d="M3.86938 5.18213V17.8618H0.482666V5.18213H3.86938ZM0.271729 1.87744C0.271729 1.38525 0.443604 0.979004 0.787354 0.658691C1.1311 0.338379 1.59204 0.178223 2.17017 0.178223C2.74048 0.178223 3.19751 0.338379 3.54126 0.658691C3.89282 0.979004 4.0686 1.38525 4.0686 1.87744C4.0686 2.36963 3.89282 2.77588 3.54126 3.09619C3.19751 3.4165 2.74048 3.57666 2.17017 3.57666C1.59204 3.57666 1.1311 3.4165 0.787354 3.09619C0.443604 2.77588 0.271729 2.36963 0.271729 1.87744ZM10.4431 7.88916V17.8618H7.06813V5.18213H10.2322L10.4431 7.88916ZM9.95095 11.0767H9.03688C9.03688 10.1392 9.15798 9.29541 9.40017 8.54541C9.64235 7.7876 9.9822 7.14307 10.4197 6.61182C10.8572 6.07275 11.3767 5.6626 11.9783 5.38135C12.5877 5.09229 13.2674 4.94775 14.0174 4.94775C14.6111 4.94775 15.1541 5.03369 15.6463 5.20557C16.1384 5.37744 16.5603 5.65088 16.9119 6.02588C17.2713 6.40088 17.5447 6.89697 17.7322 7.51416C17.9275 8.13135 18.0252 8.88525 18.0252 9.77588V17.8618H14.6267V9.76416C14.6267 9.20166 14.5486 8.76416 14.3924 8.45166C14.2361 8.13916 14.0056 7.92041 13.7009 7.79541C13.4041 7.6626 13.0369 7.59619 12.5994 7.59619C12.1463 7.59619 11.7517 7.68604 11.4158 7.86572C11.0877 8.04541 10.8142 8.29541 10.5955 8.61572C10.3845 8.92822 10.2244 9.29541 10.115 9.71729C10.0056 10.1392 9.95095 10.5923 9.95095 11.0767Z" fill="#113869"/>
</svg>
