<svg width="39" height="39" viewBox="0 0 39 39" fill="none" xmlns="http://www.w3.org/2000/svg">
<path d="M21.0414 4.08337V7.16671C27.8093 7.99921 32.6039 14.1505 31.7714 20.9184C31.4311 23.6456 30.1912 26.1814 28.2478 28.1248C26.3044 30.0681 23.7686 31.3081 21.0414 31.6484V34.7317C29.5206 33.8067 35.6102 26.1909 34.6852 17.7271C33.8835 10.543 28.2256 4.85421 21.0414 4.08337ZM17.9581 4.08337C14.9364 4.36087 12.0843 5.54796 9.74099 7.47504L11.9456 9.84921C13.6722 8.46171 15.7535 7.56754 17.9581 7.25921V4.17587V4.08337ZM7.56724 9.74129C5.6335 12.0768 4.44644 14.9397 4.16016 17.9584H7.24349C7.53641 15.7692 8.39974 13.688 9.77182 11.9459L7.56724 9.74129ZM4.17557 21.0417C4.48391 24.0634 5.67099 26.9155 7.58266 29.2588L9.77182 27.0542C8.41042 25.3115 7.5425 23.2349 7.25891 21.0417H4.17557V21.0417ZM11.8839 29.3205L9.74099 31.4325C12.0763 33.3792 14.9353 34.5915 17.9581 34.9167V31.8334C15.7649 31.5498 13.6883 30.6819 11.9456 29.3205H11.8839ZM14.2272 26.9L15.6456 20.903L11.0206 16.9255L17.1102 16.355L19.4997 10.7896L21.8893 16.4167L27.9789 16.9255L23.3539 20.903L24.7722 26.9L19.4997 23.7242L14.2272 26.9Z" fill="url(#paint0_linear_482_303)"/>
<defs>
<linearGradient id="paint0_linear_482_303" x1="6.24291" y1="13.7959" x2="35.9824" y2="14.3221" gradientUnits="userSpaceOnUse">
<stop stop-color="#4280CF"/>
<stop offset="0.0812499" stop-color="#3975C0"/>
<stop offset="0.451042" stop-color="#0C315F"/>
<stop offset="0.586458" stop-color="#0A2444"/>
<stop offset="0.815625" stop-color="#03234B"/>
<stop offset="1" stop-color="#4280CF"/>
</linearGradient>
</defs>
</svg>
