<svg width="39" height="39" viewBox="0 0 39 39" fill="none" xmlns="http://www.w3.org/2000/svg">
<path d="M17.5767 4.10293C19.1365 3.50296 20.8635 3.50296 22.4232 4.10293L33.5877 8.39593C34.8905 8.89768 35.75 10.1509 35.75 11.5459V26.4544C35.7501 27.1365 35.5435 27.8025 35.1575 28.3649C34.7715 28.9272 34.2242 29.3593 33.5877 29.6044L22.4232 33.8997C20.8635 34.4996 19.1365 34.4996 17.5767 33.8997L6.4145 29.6044C5.77759 29.3597 5.22981 28.9277 4.84339 28.3653C4.45698 27.803 4.25009 27.1367 4.25 26.4544V11.5459C4.25009 10.8636 4.45698 10.1974 4.84339 9.63501C5.22981 9.07267 5.77759 8.64065 6.4145 8.39593L17.5767 4.10293V4.10293ZM21.6155 6.20218C20.5756 5.8022 19.4244 5.8022 18.3845 6.20218L15.2705 7.40143L27.848 12.1624L32.231 10.2859L21.6155 6.20218V6.20218ZM33.5 12.1872L21.125 17.4927V31.9557C21.2915 31.9129 21.4535 31.8612 21.6155 31.7982L32.78 27.5052C32.9921 27.4233 33.1745 27.2791 33.303 27.0915C33.4316 26.9039 33.5002 26.6818 33.5 26.4544V12.1894V12.1872ZM18.875 31.9557V17.4927L6.5 12.1894V26.4544C6.49976 26.6818 6.56844 26.9039 6.69697 27.0915C6.8255 27.2791 7.00786 27.4233 7.22 27.5052L18.3845 31.7982C18.5465 31.8612 18.7085 31.9129 18.875 31.9557ZM7.769 10.2859L20 15.5284L24.869 13.4404L12.1183 8.61193L7.769 10.2859Z" fill="url(#paint0_linear_482_303)"/>
<defs>
<linearGradient id="paint0_linear_482_303" x1="6.39276" y1="13.3224" x2="36.9884" y2="13.8819" gradientUnits="userSpaceOnUse">
<stop stop-color="#4280CF"/>
<stop offset="0.0812499" stop-color="#3975C0"/>
<stop offset="0.451042" stop-color="#0C315F"/>
<stop offset="0.586458" stop-color="#0A2444"/>
<stop offset="0.815625" stop-color="#03234B"/>
<stop offset="1" stop-color="#4280CF"/>
</linearGradient>
</defs>
</svg>
