<svg width="26" height="22" viewBox="0 0 26 22" fill="none" xmlns="http://www.w3.org/2000/svg">
<path d="M23.4246 5.92207C23.4404 6.14414 23.4404 6.36626 23.4404 6.58833C23.4404 13.3618 18.285 21.1664 8.8624 21.1664C5.95947 21.1664 3.26279 20.3256 0.994385 18.8663C1.40684 18.9138 1.80337 18.9297 2.23169 18.9297C4.62695 18.9297 6.83193 18.1207 8.59272 16.7406C6.34019 16.693 4.45249 15.2178 3.8021 13.1873C4.11938 13.2349 4.43662 13.2666 4.76978 13.2666C5.22978 13.2666 5.68984 13.2031 6.11811 13.0921C3.77041 12.6162 2.00957 10.5541 2.00957 8.06357V8.00015C2.69165 8.38086 3.48486 8.6188 4.32554 8.65049C2.94546 7.73042 2.04131 6.16001 2.04131 4.38335C2.04131 3.43159 2.29507 2.55913 2.73926 1.79771C5.26147 4.90684 9.05273 6.93726 13.304 7.15938C13.2247 6.77866 13.1771 6.38213 13.1771 5.98555C13.1771 3.16191 15.4613 0.861816 18.3008 0.861816C19.776 0.861816 21.1085 1.48047 22.0444 2.47983C23.2024 2.25776 24.3128 1.82944 25.2963 1.24253C24.9156 2.43228 24.1066 3.43164 23.0438 4.06611C24.0749 3.95513 25.0743 3.66953 25.9943 3.273C25.2964 4.28818 24.4239 5.19233 23.4246 5.92207Z" fill="#113869"/>
</svg>
