<svg width="36" height="36" viewBox="0 0 36 36" fill="none" xmlns="http://www.w3.org/2000/svg">
<path d="M23.359 14.3853C23.9874 13.9777 24.4035 13.4213 24.6072 12.7137C23.9959 13.0564 23.387 13.2914 22.7788 13.4213C22.232 12.8 21.5399 12.4844 20.71 12.4844C19.8988 12.4844 19.2137 12.7852 18.6545 13.3703C18.0984 13.9596 17.8176 14.6755 17.8176 15.5113C17.8176 15.7652 17.848 15.9921 17.9086 16.1844C15.5163 16.0981 13.5362 15.0494 11.9761 13.0309C11.7116 13.5249 11.5794 14.0278 11.5794 14.5481C11.5794 15.6173 12.0064 16.4647 12.8588 17.0868C12.3727 17.0432 11.9442 16.9134 11.5794 16.7005C11.5794 17.464 11.7917 18.1018 12.2172 18.6631C12.6441 19.2187 13.1924 19.5729 13.8621 19.7242C13.6194 19.7899 13.3635 19.8211 13.1007 19.8211C12.858 19.8211 12.6861 19.7998 12.5842 19.7529C12.7631 20.3751 13.1007 20.8797 13.5883 21.266C14.0744 21.6539 14.6336 21.8585 15.262 21.8766C14.226 22.7355 13.0416 23.1604 11.7015 23.1604C11.3733 23.1604 11.1408 23.1554 11 23.1291C12.3198 24.0348 13.789 24.4844 15.4144 24.4844C17.078 24.4844 18.5479 24.0389 19.8273 23.148C21.1067 22.2621 22.0508 21.169 22.6575 19.8819C23.2672 18.5966 23.569 17.2586 23.569 15.8614V15.4768C24.1585 15.0083 24.6352 14.4807 25 13.898C24.4711 14.1388 23.9244 14.3023 23.359 14.3853Z" fill="#75757F"/>
</svg>
