<svg width="136" height="42" viewBox="0 0 136 42" fill="none" xmlns="http://www.w3.org/2000/svg">
<g clip-path="url(#clip0_235_11)">
<mask id="mask0_235_11" style="mask-type:luminance" maskUnits="userSpaceOnUse" x="5" y="0" width="148" height="40">
<path d="M152.359 0.0012207H5V39.9987H152.359V0.0012207Z" fill="white"/>
</mask>
<g mask="url(#mask0_235_11)">
<path d="M18.3901 10.4646C18.3901 6.04322 21.9744 2.45898 26.3958 2.45898H34.4014V10.4646C34.4014 14.886 30.8172 18.4703 26.3958 18.4703C21.9744 18.4703 18.3901 14.886 18.3901 10.4646Z" fill="#E96067"/>
<path d="M26.3957 37.6776C21.9743 37.6776 18.39 34.0933 18.39 29.6719V21.6663H26.3957C30.8171 21.6663 34.4013 25.2505 34.4013 29.6719C34.4013 34.0933 30.8171 37.6776 26.3957 37.6776Z" fill="#5CC97B"/>
<path d="M15.8676 19.1789C15.8676 10.2944 9.21115 3.09229 1 3.09229V29.359C1 33.8011 4.32822 37.4022 8.43392 37.4022C12.5394 37.4022 15.8676 33.8011 15.8676 29.359V19.1789Z" fill="#FAD330"/>
<path d="M51.51 27.1531H59.946V32.0001H45.183V5.84106H51.51V27.1531ZM72.5089 11.0951C74.5563 11.0951 76.3816 11.5268 77.9849 12.3901C79.6129 13.2288 80.8833 14.4498 81.7959 16.0531C82.7333 17.6564 83.2019 19.5311 83.2019 21.6771C83.2019 23.8231 82.7333 25.6978 81.7959 27.3011C80.8833 28.9044 79.6129 30.1378 77.9849 31.0011C76.3816 31.8398 74.5563 32.2591 72.5089 32.2591C70.4616 32.2591 68.6239 31.8398 66.9959 31.0011C65.3679 30.1378 64.0853 28.9044 63.1479 27.3011C62.2353 25.6978 61.7789 23.8231 61.7789 21.6771C61.7789 19.5311 62.2353 17.6564 63.1479 16.0531C64.0853 14.4498 65.3679 13.2288 66.9959 12.3901C68.6239 11.5268 70.4616 11.0951 72.5089 11.0951ZM72.5089 16.5711C71.3003 16.5711 70.2766 17.0151 69.4379 17.9031C68.6239 18.7664 68.2169 20.0244 68.2169 21.6771C68.2169 23.3298 68.6239 24.5878 69.4379 25.4511C70.2766 26.3144 71.3003 26.7461 72.5089 26.7461C73.7176 26.7461 74.7289 26.3144 75.5429 25.4511C76.3569 24.5878 76.7639 23.3298 76.7639 21.6771C76.7639 20.0244 76.3569 18.7664 75.5429 17.9031C74.7289 17.0151 73.7176 16.5711 72.5089 16.5711ZM94.3268 11.0951C95.9055 11.0951 97.2621 11.4528 98.3968 12.1681C99.5315 12.8834 100.37 13.8578 100.913 15.0911V11.3541H107.203V31.8891C107.203 33.8131 106.833 35.5398 106.093 37.0691C105.353 38.6231 104.218 39.8564 102.689 40.7691C101.159 41.6818 99.2601 42.1381 96.9908 42.1381C93.8828 42.1381 91.3915 41.3981 89.5168 39.9181C87.6668 38.4628 86.5568 36.4771 86.1868 33.9611H92.4398C92.6371 34.7998 93.0811 35.4534 93.7718 35.9221C94.4871 36.3908 95.4121 36.6251 96.5468 36.6251C97.8541 36.6251 98.9025 36.2428 99.6918 35.4781C100.506 34.7381 100.913 33.5418 100.913 31.8891V28.2631C100.37 29.4964 99.5315 30.4708 98.3968 31.1861C97.2621 31.9014 95.9055 32.2591 94.3268 32.2591C92.6248 32.2591 91.0955 31.8398 89.7388 31.0011C88.4068 30.1378 87.3461 28.9044 86.5568 27.3011C85.7921 25.6978 85.4098 23.8231 85.4098 21.6771C85.4098 19.5064 85.7921 17.6318 86.5568 16.0531C87.3461 14.4498 88.4068 13.2288 89.7388 12.3901C91.0955 11.5268 92.6248 11.0951 94.3268 11.0951ZM96.3618 16.6451C95.0051 16.6451 93.9075 17.0891 93.0688 17.9771C92.2548 18.8651 91.8478 20.0984 91.8478 21.6771C91.8478 23.2558 92.2548 24.4891 93.0688 25.3771C93.9075 26.2651 95.0051 26.7091 96.3618 26.7091C97.6938 26.7091 98.7791 26.2528 99.6178 25.3401C100.481 24.4274 100.913 23.2064 100.913 21.6771C100.913 20.1231 100.481 18.9021 99.6178 18.0141C98.7791 17.1014 97.6938 16.6451 96.3618 16.6451ZM121.216 11.0951C123.263 11.0951 125.089 11.5268 126.692 12.3901C128.32 13.2288 129.59 14.4498 130.503 16.0531C131.44 17.6564 131.909 19.5311 131.909 21.6771C131.909 23.8231 131.44 25.6978 130.503 27.3011C129.59 28.9044 128.32 30.1378 126.692 31.0011C125.089 31.8398 123.263 32.2591 121.216 32.2591C119.169 32.2591 117.331 31.8398 115.703 31.0011C114.075 30.1378 112.792 28.9044 111.855 27.3011C110.942 25.6978 110.486 23.8231 110.486 21.6771C110.486 19.5311 110.942 17.6564 111.855 16.0531C112.792 14.4498 114.075 13.2288 115.703 12.3901C117.331 11.5268 119.169 11.0951 121.216 11.0951ZM121.216 16.5711C120.007 16.5711 118.984 17.0151 118.145 17.9031C117.331 18.7664 116.924 20.0244 116.924 21.6771C116.924 23.3298 117.331 24.5878 118.145 25.4511C118.984 26.3144 120.007 26.7461 121.216 26.7461C122.425 26.7461 123.436 26.3144 124.25 25.4511C125.064 24.5878 125.471 23.3298 125.471 21.6771C125.471 20.0244 125.064 18.7664 124.25 17.9031C123.436 17.0151 122.425 16.5711 121.216 16.5711Z" fill="white"/>
</g>
</g>
<defs>
<clipPath id="clip0_235_11">
<rect width="136" height="42" fill="white"/>
</clipPath>
</defs>
</svg>
