<svg width="280" height="53" viewBox="0 0 280 53" fill="none" xmlns="http://www.w3.org/2000/svg">
<g filter="url(#filter0_d_402_234)">
<path d="M108 15.68V22.72H96.88V26.64H104.88V33.32H96.88V44H88V15.68H108ZM130.368 39.72H120.928L119.528 44H110.208L120.568 15.68H130.808L141.128 44H131.768L130.368 39.72ZM128.208 33.04L125.648 25.16L123.088 33.04H128.208ZM155.425 44.28C152.039 44.28 149.239 43.4933 147.025 41.92C144.839 40.32 143.652 37.9867 143.465 34.92H152.905C153.039 36.5467 153.759 37.36 155.065 37.36C155.545 37.36 155.945 37.2533 156.265 37.04C156.612 36.8 156.785 36.44 156.785 35.96C156.785 35.2933 156.425 34.76 155.705 34.36C154.985 33.9333 153.865 33.4533 152.345 32.92C150.532 32.28 149.025 31.6533 147.825 31.04C146.652 30.4267 145.639 29.5333 144.785 28.36C143.932 27.1867 143.519 25.68 143.545 23.84C143.545 22 144.012 20.44 144.945 19.16C145.905 17.8533 147.199 16.8667 148.825 16.2C150.479 15.5333 152.332 15.2 154.385 15.2C157.852 15.2 160.599 16 162.625 17.6C164.679 19.2 165.759 21.4533 165.865 24.36H156.305C156.279 23.56 156.079 22.9867 155.705 22.64C155.332 22.2933 154.879 22.12 154.345 22.12C153.972 22.12 153.665 22.2533 153.425 22.52C153.185 22.76 153.065 23.1067 153.065 23.56C153.065 24.2 153.412 24.7333 154.105 25.16C154.825 25.56 155.959 26.0533 157.505 26.64C159.292 27.3067 160.759 27.9467 161.905 28.56C163.079 29.1733 164.092 30.0267 164.945 31.12C165.799 32.2133 166.225 33.5867 166.225 35.24C166.225 36.9733 165.799 38.5333 164.945 39.92C164.092 41.28 162.852 42.3467 161.225 43.12C159.599 43.8933 157.665 44.28 155.425 44.28ZM196.745 15.68V44H187.865V32.96H179.425V44H170.545V15.68H179.425V25.88H187.865V15.68H196.745ZM210.821 15.68V44H201.941V15.68H210.821ZM229.831 44.28C227.165 44.28 224.711 43.6533 222.471 42.4C220.258 41.1467 218.498 39.4133 217.191 37.2C215.885 34.9867 215.231 32.4933 215.231 29.72C215.231 26.9467 215.885 24.4533 217.191 22.24C218.498 20.0267 220.258 18.3067 222.471 17.08C224.711 15.8267 227.165 15.2 229.831 15.2C232.498 15.2 234.938 15.8267 237.151 17.08C239.365 18.3067 241.111 20.0267 242.391 22.24C243.698 24.4533 244.351 26.9467 244.351 29.72C244.351 32.4933 243.698 34.9867 242.391 37.2C241.111 39.4133 239.351 41.1467 237.111 42.4C234.898 43.6533 232.471 44.28 229.831 44.28ZM229.831 36C231.591 36 232.951 35.44 233.911 34.32C234.871 33.1733 235.351 31.64 235.351 29.72C235.351 27.7733 234.871 26.24 233.911 25.12C232.951 23.9733 231.591 23.4 229.831 23.4C228.045 23.4 226.671 23.9733 225.711 25.12C224.751 26.24 224.271 27.7733 224.271 29.72C224.271 31.64 224.751 33.1733 225.711 34.32C226.671 35.44 228.045 36 229.831 36ZM275.915 44H267.035L257.635 29.76V44H248.755V15.68H257.635L267.035 30.16V15.68H275.915V44Z" fill="white"/>
<path d="M81 16L24.6679 40.03C19.996 42.01 16.0728 43 12.8983 43C9.30454 43 6.69906 41.74 5.08187 39.22C4.06364 37.6 3.76416 35.545 4.18343 33.055C4.6027 30.565 5.71078 27.91 7.50766 25.09C9.00506 22.81 11.4608 19.81 14.8749 16.09C13.6769 18.01 12.8384 19.99 12.3592 22.03C11.4608 25.87 12.2694 28.69 14.785 30.49C15.9829 31.33 17.6301 31.75 19.7264 31.75C21.4035 31.75 23.2902 31.48 25.3866 30.94L81 16Z" fill="white"/>
</g>
<defs>
<filter id="filter0_d_402_234" x="0" y="15.2" width="279.915" height="37.0801" filterUnits="userSpaceOnUse" color-interpolation-filters="sRGB">
<feFlood flood-opacity="0" result="BackgroundImageFix"/>
<feColorMatrix in="SourceAlpha" type="matrix" values="0 0 0 0 0 0 0 0 0 0 0 0 0 0 0 0 0 0 127 0" result="hardAlpha"/>
<feOffset dy="4"/>
<feGaussianBlur stdDeviation="2"/>
<feComposite in2="hardAlpha" operator="out"/>
<feColorMatrix type="matrix" values="0 0 0 0 0 0 0 0 0 0 0 0 0 0 0 0 0 0 0.25 0"/>
<feBlend mode="normal" in2="BackgroundImageFix" result="effect1_dropShadow_402_234"/>
<feBlend mode="normal" in="SourceGraphic" in2="effect1_dropShadow_402_234" result="shape"/>
</filter>
</defs>
</svg>
