<svg width="210" height="79" viewBox="0 0 210 79" fill="none" xmlns="http://www.w3.org/2000/svg">
<path d="M22.9939 45.1287L34.6535 40.0754L41.3645 43.8652L42.7202 56.2984L34.4501 56.2323L35.6703 47.5883L34.2467 46.7905L27.2645 52.1097L22.9939 45.1287Z" fill="#81818B"/>
<path d="M42.1106 43.3329L52.4146 50.7127L56.4816 43.5989L48.2114 40.341V38.7453L56.4816 35.4209L52.4146 28.3733L42.1106 35.7534V43.3329Z" fill="#81818B"/>
<path d="M41.3645 35.1553L42.7202 22.7222L34.4501 22.8552L35.6703 31.4984L34.2467 32.2963L27.1967 26.9773L22.9939 33.892L34.6535 38.945L41.3645 35.1553Z" fill="#81818B"/>
<path d="M84.0724 38.0203V49.6685H88.5234V34.824H82.0417V38.0203H84.0724Z" fill="#81818B"/>
<path d="M83.9334 32.7382C84.3413 33.1535 84.9629 33.3611 85.7972 33.3611C86.6324 33.3611 87.2441 33.1535 87.6331 32.7382C88.0415 32.3046 88.2452 31.7628 88.2452 31.1129C88.2452 30.4446 88.0415 29.9028 87.6331 29.4876C87.2441 29.0542 86.6324 28.8374 85.7972 28.8374C84.9629 28.8374 84.3413 29.0542 83.9334 29.4876C83.5444 29.9028 83.3496 30.4446 83.3496 31.1129C83.3496 31.7628 83.5444 32.3046 83.9334 32.7382Z" fill="#81818B"/>
<path d="M68.5776 49.3432C69.8387 49.9029 71.3869 50.1831 73.2228 50.1831C74.948 50.1831 76.4311 49.9209 77.6743 49.3974C78.917 48.8738 79.8719 48.1423 80.5392 47.2031C81.2259 46.246 81.5687 45.1355 81.5687 43.8713C81.5687 42.6434 81.2448 41.605 80.5954 40.7561C79.9643 39.8894 79.0839 39.2122 77.9525 38.7247C76.8212 38.2189 75.5134 37.9029 74.0297 37.7767L72.4721 37.6412C71.5449 37.5688 70.8771 37.3252 70.4692 36.9097C70.0607 36.4944 69.857 36.0067 69.857 35.4471C69.857 35.0135 69.9689 34.6163 70.1904 34.2551C70.4135 33.8759 70.7469 33.5779 71.1921 33.3611C71.6562 33.1446 72.2216 33.0362 72.8894 33.0362C73.594 33.0362 74.1783 33.1624 74.6419 33.4154C74.7437 33.4689 74.8409 33.526 74.9317 33.5866L74.9537 33.6017C74.9879 33.6246 75.0215 33.6484 75.054 33.6724C75.3359 33.8819 75.5601 34.1304 75.7271 34.4176C75.9675 34.815 76.0888 35.2573 76.0888 35.745H80.5392C80.5392 34.4446 80.2331 33.316 79.6215 32.359C79.0099 31.3838 78.1289 30.6344 76.9792 30.1105C75.8473 29.5688 74.4844 29.2979 72.8894 29.2979C71.3685 29.2979 70.0518 29.5508 68.9388 30.0564C67.8263 30.5441 66.9548 31.2483 66.3243 32.1692C65.7116 33.0902 65.4056 34.1829 65.4056 35.4471C65.4056 37.1987 66.0088 38.6072 67.2142 39.6728C68.4196 40.7382 70.0334 41.3522 72.0547 41.5147L73.5851 41.6502C74.8272 41.7586 75.7271 42.0024 76.2836 42.3814C76.8395 42.7426 77.1178 43.2392 77.1178 43.8713C77.1178 44.1618 77.069 44.4342 76.9713 44.6888C76.8989 44.8778 76.7991 45.0567 76.6731 45.2258C76.3754 45.6048 75.9402 45.9028 75.3653 46.1198C74.7905 46.3364 74.0765 46.4447 73.2228 46.4447C72.2773 46.4447 71.5076 46.3185 70.9144 46.0653C70.3206 45.7946 69.8759 45.4424 69.5783 45.0093C69.3005 44.5756 69.1619 44.1062 69.1619 43.6004H64.7383C64.7383 44.8826 65.0627 46.0205 65.7116 47.0134C66.3611 47.9888 67.316 48.7656 68.5776 49.3432Z" fill="#81818B"/>
<path d="M98.4547 49.8577C96.9149 49.8577 95.6727 49.6774 94.7267 49.3158C93.7806 48.9369 93.0855 48.3136 92.6403 47.4469C92.214 46.5618 92.0004 45.3703 92.0004 43.8712V37.9931H89.6914V34.8239H92.0004V30.8149H96.1452V34.8239H100.597V37.9931H96.1452V44.034C96.1452 44.7382 96.3311 45.2799 96.7017 45.6589C97.0913 46.0204 97.6383 46.2008 98.3434 46.2008H100.597V49.8577H98.4547Z" fill="#81818B"/>
<path fill-rule="evenodd" clip-rule="evenodd" d="M105.956 49.5328C106.957 49.9659 108.108 50.1829 109.405 50.1829C110.685 50.1829 111.817 49.9659 112.799 49.5328C113.782 49.0992 114.599 48.4943 115.248 47.718C115.896 46.9412 116.333 46.0562 116.555 45.0633H112.466C112.28 45.5148 111.928 45.8938 111.409 46.2007C110.89 46.5077 110.221 46.6616 109.405 46.6616C108.9 46.6616 108.448 46.603 108.05 46.4866C107.747 46.398 107.476 46.2759 107.236 46.1197C106.679 45.7586 106.271 45.2526 106.011 44.6027C105.939 44.4175 105.878 44.2239 105.826 44.0222C105.773 43.8178 105.73 43.6052 105.698 43.3838H116.833V41.9209C116.833 40.5665 116.536 39.3205 115.943 38.1828C115.349 37.0269 114.487 36.0969 113.356 35.3926C112.243 34.6703 110.871 34.3091 109.238 34.3091C107.996 34.3091 106.883 34.5259 105.9 34.9593C104.936 35.3746 104.129 35.9434 103.48 36.6658C102.831 37.3881 102.33 38.2099 101.977 39.1309C101.644 40.0337 101.477 40.9818 101.477 41.975V42.5168C101.477 43.4741 101.644 44.413 101.977 45.334C102.33 46.237 102.831 47.0584 103.48 47.799C104.147 48.5216 104.972 49.0992 105.956 49.5328ZM105.775 40.7052C105.787 40.6478 105.8 40.5914 105.814 40.5358C105.853 40.3826 105.897 40.2359 105.948 40.0956C105.977 40.0158 106.007 39.9379 106.04 39.8622C106.317 39.194 106.726 38.6884 107.263 38.3453C107.464 38.2171 107.682 38.1128 107.916 38.0326C108.31 37.898 108.751 37.8306 109.238 37.8306C109.999 37.8306 110.629 38.0022 111.13 38.3453C111.649 38.6703 112.039 39.1488 112.299 39.7809C112.32 39.8319 112.34 39.8838 112.359 39.9364C112.389 40.0201 112.418 40.1061 112.445 40.1942C112.484 40.3253 112.518 40.461 112.549 40.6012C112.571 40.7045 112.589 40.8104 112.606 40.9187H105.732C105.745 40.8463 105.759 40.7752 105.775 40.7052Z" fill="#81818B"/>
<path d="M118.67 49.6685V34.8239H122.203V38.5627C122.251 38.3404 122.306 38.1271 122.366 37.9226C122.419 37.7502 122.475 37.584 122.537 37.4244C122.926 36.413 123.51 35.6547 124.289 35.1489C125.068 34.6252 126.023 34.3635 127.155 34.3635H127.349C128.5 34.3635 129.454 34.6252 130.215 35.1489C130.994 35.6547 131.578 36.413 131.967 37.4244L131.998 37.5007L132.024 37.5705C132.042 37.5212 132.06 37.4726 132.078 37.4244C132.486 36.413 133.08 35.6547 133.859 35.1489C134.638 34.6252 135.593 34.3635 136.725 34.3635H136.919C138.069 34.3635 139.033 34.6252 139.812 35.1489C140.61 35.6547 141.213 36.413 141.62 37.4244C142.028 38.4357 142.233 39.6999 142.233 41.2168V49.6685H137.782V40.9729C137.782 40.1603 137.559 39.5012 137.114 38.9956C136.687 38.4898 136.075 38.237 135.278 38.237C134.48 38.237 133.85 38.4989 133.386 39.0226C132.923 39.5282 132.691 40.2054 132.691 41.0543V49.6685H128.212V40.9729C128.212 40.1603 127.989 39.5012 127.544 38.9956C127.118 38.4898 126.514 38.237 125.736 38.237C124.92 38.237 124.28 38.4989 123.817 39.0226C123.353 39.5282 123.121 40.2054 123.121 41.0543V49.6685H118.67Z" fill="#81818B"/>
<path fill-rule="evenodd" clip-rule="evenodd" d="M154.123 46.808V49.6685H157.655V40.5666C157.655 39.1941 157.377 38.0746 156.821 37.2076C156.264 36.3227 155.449 35.6636 154.373 35.2302C153.316 34.7969 152.009 34.5801 150.45 34.5801C150.113 34.5801 149.76 34.5835 149.393 34.5908C149.176 34.5951 148.953 34.6006 148.726 34.6072C148.114 34.6252 147.52 34.6523 146.945 34.6885L146.506 34.7173C146.28 34.7325 146.069 34.7476 145.869 34.7629C145.72 34.7742 145.577 34.7856 145.443 34.7969V38.4538C146.018 38.4176 146.658 38.3814 147.363 38.3454C147.56 38.3354 147.755 38.326 147.949 38.3173C148.229 38.3046 148.505 38.2937 148.779 38.2842C148.995 38.2765 149.209 38.2697 149.421 38.2641C150.089 38.246 150.627 38.237 151.035 38.237C151.851 38.237 152.444 38.4265 152.815 38.8059C153.186 39.1851 153.371 39.754 153.371 40.5125V40.5666H150.617C149.264 40.5666 148.067 40.7382 147.028 41.0814C145.99 41.4063 145.183 41.921 144.609 42.6253C144.033 43.3117 143.746 44.1965 143.746 45.2799C143.746 46.2733 143.978 47.131 144.441 47.8537C144.905 48.5575 145.545 49.0993 146.361 49.4783C147.196 49.8577 148.16 50.0475 149.254 50.0475C150.311 50.0475 151.202 49.8577 151.925 49.4783C152.667 49.0993 153.242 48.5575 153.65 47.8537C153.722 47.7346 153.788 47.6116 153.851 47.4836C153.939 47.3029 154.018 47.1127 154.087 46.9131L154.123 46.808ZM153.371 44.1695V42.9775H150.589C149.81 42.9775 149.208 43.167 148.781 43.5463C148.373 43.9075 148.169 44.4041 148.169 45.0361C148.169 45.3337 148.22 45.6039 148.321 45.8478C148.424 46.0921 148.577 46.3091 148.781 46.4988C149.208 46.8604 149.81 47.0406 150.589 47.0406C150.738 47.0406 150.881 47.0335 151.019 47.0196C151.132 47.008 151.243 46.9914 151.349 46.9704C151.552 46.9301 151.745 46.872 151.925 46.7968C152.333 46.6165 152.667 46.3185 152.926 45.9028C153.186 45.4876 153.335 44.9095 153.371 44.1695Z" fill="#81818B"/>
<path d="M160.319 49.6683V34.8238H163.853V39.7235C164.022 38.3248 164.448 37.197 165.132 36.3407C166.06 35.2031 167.394 34.6343 169.138 34.6343H169.723V38.3723H168.61C167.386 38.3723 166.44 38.6973 165.772 39.3475C165.104 39.9796 164.77 40.9006 164.77 42.1104V49.6683H160.319Z" fill="#81818B"/>
<path d="M175.367 42.7335H176.841L181.654 49.6683H186.661L180.558 41.1516L185.576 34.8238H180.903L175.367 41.8821V29.8938H170.916V49.6683H175.367V42.7335Z" fill="#81818B"/>
</svg>
