<svg width="210" height="78" viewBox="0 0 210 78" fill="none" xmlns="http://www.w3.org/2000/svg">
<path fill-rule="evenodd" clip-rule="evenodd" d="M29.4155 31.3726C32.1558 27.8249 36.5441 25.5264 41.49 25.5264C46.465 25.5264 50.8755 27.852 53.6126 31.4353C53.496 31.5506 53.39 31.6701 53.2939 31.7894C52.7925 32.4143 52.4153 33.2191 52.1131 34.0366C51.5046 35.6804 51.0404 37.8277 50.6106 39.8385L50.5724 40.0192C50.1436 42.0263 49.745 43.8929 49.263 45.2785C49.0465 45.901 48.8412 46.3412 48.6591 46.623C48.4691 46.3389 48.2536 45.8934 48.0254 45.262C47.5099 43.8366 47.0764 41.8977 46.6169 39.8275L46.602 39.7597V39.7597C46.1603 37.7712 45.6919 35.6614 45.1077 34.0463C44.8143 33.2351 44.4543 32.4382 43.9834 31.8191C43.5212 31.2116 42.7519 30.5259 41.6267 30.5259C40.5086 30.5259 39.7357 31.2041 39.2669 31.8049C38.7869 32.42 38.4126 33.2135 38.1044 34.0252C37.4835 35.6597 36.9759 37.7977 36.5035 39.8112L36.4548 40.0192C35.987 42.0138 35.5497 43.8786 35.0533 45.2669C34.8638 45.7971 34.685 46.2005 34.5232 46.4886C34.365 46.2018 34.1906 45.8011 34.0063 45.2754C33.5301 43.9167 33.113 42.1041 32.6649 40.1573L32.5865 39.8166C32.1223 37.8019 31.6187 35.66 30.989 34.0204C30.6761 33.2057 30.2935 32.4082 29.7983 31.7902C29.6861 31.6503 29.5587 31.5083 29.4155 31.3726ZM27.757 34.0966C27.8875 34.3447 28.0256 34.6521 28.1683 35.0239C28.7134 36.4431 29.1751 38.3796 29.6506 40.4433L29.7432 40.8454C30.1761 42.7284 30.6264 44.6872 31.1569 46.2005C31.439 47.0053 31.7797 47.7936 32.2179 48.4063C32.6323 48.9857 33.3757 49.7342 34.5188 49.7342C35.6585 49.7342 36.4037 48.9894 36.8209 48.4126C37.2628 47.8013 37.6091 47.0139 37.8969 46.2085C38.4487 44.6653 38.9185 42.6606 39.3681 40.7421V40.742L39.4369 40.4487C39.9213 38.3838 40.3877 36.4434 40.9287 35.019C41.1794 34.3591 41.4141 33.8994 41.6183 33.6142C41.812 33.8969 42.0331 34.3494 42.2678 34.9979C42.7833 36.4234 43.2164 38.3622 43.6761 40.4324L43.6911 40.5002C44.1327 42.4887 44.6011 44.5986 45.1852 46.2134C45.4787 47.025 45.8387 47.8219 46.3096 48.4408C46.7719 49.0485 47.5411 49.7342 48.6661 49.7342C49.7971 49.7342 50.5635 49.0422 51.0203 48.4291C51.4841 47.8071 51.8328 47.0076 52.1146 46.1973C52.656 44.6409 53.0865 42.6215 53.4971 40.7004V40.7004L53.5559 40.4215C53.9979 38.3538 54.4221 36.4226 54.9461 35.0077C55.0595 34.6999 55.1713 34.4374 55.2779 34.217C56.0806 35.9877 56.5258 37.943 56.5258 39.9983C56.5258 47.9908 49.7943 54.4703 41.49 54.4703C33.1858 54.4703 26.454 47.9908 26.454 39.9983C26.454 37.8963 26.9196 35.8989 27.757 34.0966ZM41.49 22.6321C31.525 22.6321 23.4468 30.4072 23.4468 39.9983C23.4468 49.5894 31.525 57.3645 41.49 57.3645C51.4552 57.3645 59.533 49.5894 59.533 39.9983C59.533 30.4072 51.4552 22.6321 41.49 22.6321ZM41.8337 33.3719C41.8337 33.3723 41.8302 33.375 41.8232 33.3789C41.8302 33.3735 41.8337 33.3716 41.8337 33.3719ZM41.4181 33.3738C41.4111 33.3698 41.4077 33.3669 41.4077 33.3666C41.4077 33.3662 41.4112 33.3683 41.4181 33.3738ZM48.4375 46.8978C48.4375 46.8978 48.4407 46.8946 48.4472 46.8906C48.4407 46.896 48.4375 46.8982 48.4375 46.8978ZM48.8747 46.8861C48.8817 46.8902 48.8854 46.8928 48.8854 46.8933C48.8854 46.8937 48.8817 46.8915 48.8747 46.8861ZM34.2106 46.9238C34.2105 46.9233 34.2149 46.9193 34.2236 46.9135C34.2149 46.9211 34.2106 46.9242 34.2106 46.9238ZM34.8196 46.9161C34.8282 46.922 34.8325 46.926 34.8325 46.9264C34.8324 46.9269 34.8281 46.9242 34.8196 46.9161Z" fill="#81818B"/>
<path d="M69.4957 50.2796L65.1204 35.8743H68.9529L71.5479 46.2425L74.5651 35.8743H78.8502L81.8679 46.2425L84.4929 35.8743H88.3254L83.9196 50.2796H79.9065L76.7076 39.5046L73.5093 50.2796H69.4957Z" fill="#81818B"/>
<path d="M93.9487 50.6283C92.6614 50.6283 91.6051 50.4343 90.7803 50.0471C89.9561 49.6406 89.3423 49.1082 88.9397 48.4499C88.5375 47.7915 88.3364 47.0655 88.3364 46.2717C88.3364 44.9358 88.8793 43.8515 89.9655 43.0189C91.0517 42.1864 92.6819 41.7701 94.8543 41.7701H98.6564V41.4216C98.6564 40.4341 98.3645 39.708 97.7812 39.2433C97.1979 38.7786 96.4734 38.5463 95.6087 38.5463C94.8239 38.5463 94.1398 38.7302 93.5565 39.0982C92.9732 39.4467 92.611 39.9694 92.4703 40.6664H88.6982C88.799 39.6209 89.1612 38.7109 89.7844 37.9364C90.4286 37.162 91.2533 36.5714 92.2587 36.1648C93.2651 35.7389 94.3913 35.5259 95.6387 35.5259C97.7712 35.5259 99.4507 36.0389 100.678 37.0651C101.905 38.0913 102.519 39.5435 102.519 41.4216V50.2797H99.2291L98.8674 47.9564C98.4248 48.7308 97.8011 49.3695 96.9968 49.8732C96.212 50.3765 95.1961 50.6283 93.9487 50.6283ZM94.8239 47.7238C95.9306 47.7238 96.7853 47.3752 97.3885 46.6783C98.0122 45.9814 98.4049 45.1196 98.5661 44.0935H95.2764C94.2506 44.0935 93.5166 44.2774 93.0735 44.6453C92.6315 44.9936 92.4099 45.4297 92.4099 45.9522C92.4099 46.5138 92.6315 46.9494 93.0735 47.2591C93.5166 47.5687 94.0994 47.7238 94.8239 47.7238Z" fill="#81818B"/>
<path d="M108.599 50.2796L103.107 35.8743H107.15L110.952 46.7655L114.755 35.8743H118.798L113.276 50.2796H108.599Z" fill="#81818B"/>
<path d="M126.562 50.6283C125.054 50.6283 123.716 50.3182 122.549 49.6988C121.383 49.0791 120.468 48.2078 119.804 47.0847C119.139 45.9621 118.808 44.6646 118.808 43.1932C118.808 41.7023 119.13 40.376 119.773 39.2143C120.437 38.0526 121.342 37.1523 122.489 36.5133C123.655 35.855 125.024 35.5259 126.593 35.5259C128.061 35.5259 129.359 35.8357 130.486 36.4552C131.612 37.0748 132.488 37.9267 133.111 39.011C133.754 40.0759 134.077 41.2666 134.077 42.5833C134.077 42.7963 134.066 43.0189 134.046 43.2512C134.046 43.4836 134.036 43.7256 134.016 43.9773H122.64C122.72 45.1003 123.123 45.9814 123.847 46.6205C124.591 47.2591 125.487 47.5786 126.533 47.5786C127.317 47.5786 127.971 47.4141 128.494 47.0847C129.037 46.7365 129.439 46.2911 129.701 45.7488H133.624C133.342 46.659 132.869 47.4917 132.206 48.2468C131.561 48.9823 130.757 49.5631 129.791 49.9893C128.846 50.415 127.769 50.6283 126.562 50.6283ZM126.593 38.5463C125.648 38.5463 124.813 38.8077 124.088 39.3305C123.364 39.8339 122.902 40.6084 122.7 41.6539H130.153C130.093 40.7052 129.731 39.95 129.067 39.3885C128.403 38.8271 127.579 38.5463 126.593 38.5463Z" fill="#81818B"/>
<path d="M136.118 50.2796V29.3687H139.98V50.2796H136.118Z" fill="#81818B"/>
<path d="M149.992 50.6283C148.483 50.6283 147.146 50.3182 145.978 49.6988C144.812 49.0791 143.897 48.2078 143.233 47.0847C142.569 45.9621 142.237 44.6646 142.237 43.1932C142.237 41.7023 142.559 40.376 143.202 39.2143C143.866 38.0526 144.771 37.1523 145.919 36.5133C147.085 35.855 148.453 35.5259 150.022 35.5259C151.49 35.5259 152.788 35.8357 153.915 36.4552C155.041 37.0748 155.917 37.9267 156.54 39.011C157.184 40.0759 157.506 41.2666 157.506 42.5833C157.506 42.7963 157.495 43.0189 157.475 43.2512C157.475 43.4836 157.465 43.7256 157.445 43.9773H146.069C146.15 45.1003 146.552 45.9814 147.276 46.6205C148.02 47.2591 148.916 47.5786 149.962 47.5786C150.746 47.5786 151.4 47.4141 151.923 47.0847C152.466 46.7365 152.869 46.2911 153.13 45.7488H157.053C156.771 46.659 156.298 47.4917 155.635 48.2468C154.991 48.9823 154.186 49.5631 153.22 49.9893C152.275 50.415 151.199 50.6283 149.992 50.6283ZM150.022 38.5463C149.077 38.5463 148.242 38.8077 147.517 39.3305C146.793 39.8339 146.331 40.6084 146.129 41.6539H153.583C153.522 40.7052 153.16 39.95 152.496 39.3885C151.832 38.8271 151.008 38.5463 150.022 38.5463Z" fill="#81818B"/>
<path d="M165.733 50.6283C164.405 50.6283 163.238 50.4249 162.233 50.0184C161.226 49.5922 160.422 49.0114 159.818 48.2755C159.215 47.5401 158.853 46.6881 158.732 45.7201H162.625C162.745 46.2812 163.068 46.7656 163.591 47.1721C164.133 47.5593 164.827 47.753 165.672 47.753C166.517 47.753 167.131 47.5885 167.513 47.2591C167.915 46.9301 168.117 46.5523 168.117 46.1266C168.117 45.5068 167.835 45.0904 167.272 44.8775C166.709 44.6453 165.924 44.4227 164.918 44.2097C164.275 44.0741 163.621 43.9096 162.957 43.7159C162.293 43.5224 161.68 43.2803 161.116 42.9899C160.573 42.6801 160.13 42.2928 159.788 41.8281C159.446 41.3441 159.276 40.7535 159.276 40.0565C159.276 38.7786 159.798 37.7041 160.845 36.8328C161.911 35.9615 163.399 35.5259 165.31 35.5259C167.081 35.5259 168.489 35.9228 169.535 36.7166C170.601 37.5105 171.235 38.6044 171.436 39.9985H167.785C167.563 38.9336 166.728 38.4011 165.281 38.4011C164.556 38.4011 163.993 38.5367 163.591 38.8077C163.208 39.0788 163.017 39.4176 163.017 39.8242C163.017 40.2502 163.309 40.589 163.892 40.8407C164.476 41.0924 165.25 41.3247 166.216 41.5378C167.261 41.7701 168.217 42.0315 169.082 42.3219C169.967 42.5929 170.671 43.0093 171.195 43.5707C171.718 44.1128 171.979 44.8968 171.979 45.9231C171.999 46.814 171.757 47.6171 171.255 48.3338C170.752 49.0499 170.028 49.6115 169.082 50.0184C168.137 50.4249 167.02 50.6283 165.733 50.6283Z" fill="#81818B"/>
<path d="M180.379 50.6283C179.052 50.6283 177.885 50.4249 176.879 50.0184C175.873 49.5922 175.069 49.0114 174.465 48.2755C173.862 47.5401 173.499 46.6881 173.379 45.7201H177.272C177.392 46.2812 177.714 46.7656 178.237 47.1721C178.78 47.5593 179.474 47.753 180.319 47.753C181.164 47.753 181.778 47.5885 182.16 47.2591C182.562 46.9301 182.764 46.5523 182.764 46.1266C182.764 45.5068 182.482 45.0904 181.918 44.8775C181.355 44.6453 180.571 44.4227 179.565 44.2097C178.921 44.0741 178.267 43.9096 177.603 43.7159C176.94 43.5224 176.326 43.2803 175.763 42.9899C175.22 42.6801 174.777 42.2928 174.435 41.8281C174.093 41.3441 173.922 40.7535 173.922 40.0565C173.922 38.7786 174.445 37.7041 175.491 36.8328C176.558 35.9615 178.046 35.5259 179.957 35.5259C181.727 35.5259 183.135 35.9228 184.182 36.7166C185.247 37.5105 185.881 38.6044 186.083 39.9985H182.431C182.21 38.9336 181.375 38.4011 179.927 38.4011C179.202 38.4011 178.639 38.5367 178.237 38.8077C177.855 39.0788 177.664 39.4176 177.664 39.8242C177.664 40.2502 177.955 40.589 178.539 40.8407C179.122 41.0924 179.896 41.3247 180.862 41.5378C181.908 41.7701 182.864 42.0315 183.729 42.3219C184.614 42.5929 185.318 43.0093 185.841 43.5707C186.364 44.1128 186.626 44.8968 186.626 45.9231C186.646 46.814 186.404 47.6171 185.901 48.3338C185.398 49.0499 184.675 49.6115 183.729 50.0184C182.783 50.4249 181.667 50.6283 180.379 50.6283Z" fill="#81818B"/>
</svg>
