<svg width="210" height="79" viewBox="0 0 210 79" fill="none" xmlns="http://www.w3.org/2000/svg">
<path d="M29.6956 28.03C31.8498 26.0681 34.7749 24.923 37.7395 24.7805C38.7541 24.7805 39.7718 24.7863 40.7865 24.7776C40.7347 25.8153 40.7865 26.8557 40.756 27.8934C40.6128 30.2128 39.7139 32.4798 38.1996 34.2993C36.2313 36.7466 33.2209 38.3887 30.0247 38.8131C28.6292 39.0281 27.2123 38.8915 25.8077 38.9293C25.8321 37.787 25.7559 36.642 25.8503 35.5026C26.1246 32.6775 27.5231 29.9715 29.6956 28.03Z" fill="#81818B"/>
<path d="M41.7261 24.7776C42.8139 24.7892 43.9016 24.7718 44.9924 24.7834C47.7072 24.9665 50.3855 25.9605 52.4298 27.6841C54.6845 29.5297 56.2296 32.1689 56.6255 34.9882C56.7992 36.296 56.6895 37.6185 56.7567 38.9322C55.8059 38.9293 54.8583 38.9264 53.9075 38.9322C51.5708 38.8712 49.2734 38.1504 47.3172 36.9355C46.4153 36.3193 45.4891 35.6944 44.8127 34.8399C43.3288 33.2588 42.3203 31.2736 41.9394 29.181C41.6529 27.7277 41.7688 26.2454 41.7261 24.7776Z" fill="#81818B"/>
<path d="M25.8098 39.7634C26.7757 39.8157 27.7447 39.7198 28.7075 39.8215C32.83 39.9058 36.8306 42.1147 38.9665 45.4776C40.1914 47.361 40.8495 49.5933 40.7643 51.8107C40.7612 52.5378 40.7734 53.2613 40.752 53.9853C39.2225 53.9412 37.6777 54.0603 36.1633 53.7784C32.7995 53.2382 29.7069 51.3283 27.8452 48.6021C26.4344 46.6198 25.7306 44.1987 25.8038 41.8067C25.8038 41.1236 25.8038 40.4435 25.8098 39.7634Z" fill="#81818B"/>
<path d="M51.6084 40.0714C53.266 39.7196 54.9749 39.7778 56.6601 39.7778L56.7336 39.8476C56.6969 41.3677 56.8218 42.9052 56.5021 44.4078C55.8285 47.7794 53.4886 50.7903 50.341 52.4441C48.3818 53.4849 46.1331 53.9963 43.8936 53.9732C43.1776 53.9763 42.4585 53.9616 41.7425 53.9816C41.7425 52.7232 41.6876 51.4592 41.837 50.2061C42.1843 47.1748 43.9028 44.3526 46.3739 42.446C47.9034 41.295 49.7011 40.4608 51.6084 40.0714Z" fill="#81818B"/>
<path d="M69.2416 48.3554C69.2416 48.8671 69.0558 49.2999 68.6851 49.6543C68.3339 49.989 67.8903 50.1563 67.3543 50.1563C66.8382 50.1563 66.4051 49.989 66.0544 49.6543C65.7037 49.2999 65.5283 48.8671 65.5283 48.3554V30.1118C65.5283 29.6001 65.7037 29.177 66.0544 28.8424C66.4255 28.4882 66.8797 28.311 67.4162 28.311C67.9522 28.311 68.3854 28.4882 68.7156 28.8424C69.0663 29.177 69.2416 29.6001 69.2416 30.1118V48.3554Z" fill="#81818B"/>
<path d="M84.1476 34.3628C84.6837 34.3628 85.1273 34.5399 85.4785 34.8941C85.8287 35.2287 86.004 35.6518 86.004 36.1635V43.6617C86.004 45.7478 85.3955 47.4009 84.1786 48.6211C82.9611 49.8413 81.2076 50.4512 78.917 50.4512C76.6275 50.4512 74.8735 49.8413 73.6566 48.6211C72.4601 47.4009 71.8616 45.7478 71.8616 43.6617V36.1635C71.8616 35.6518 72.0369 35.2287 72.3876 34.8941C72.7383 34.5399 73.1819 34.3628 73.7185 34.3628C74.255 34.3628 74.6981 34.5399 75.0488 34.8941C75.4001 35.2287 75.5754 35.6518 75.5754 36.1635V43.6617C75.5754 44.8622 75.8542 45.7576 76.4107 46.348C76.9677 46.9188 77.8035 47.2041 78.917 47.2041C80.0526 47.2041 80.8979 46.9188 81.4554 46.348C82.0119 45.7576 82.2907 44.8622 82.2907 43.6617V36.1635C82.2907 35.6518 82.4661 35.2287 82.8168 34.8941C83.1675 34.5399 83.6111 34.3628 84.1476 34.3628Z" fill="#81818B"/>
<path d="M97.1734 34.0676C98.824 34.0676 100.041 34.4514 100.825 35.2189C101.609 35.9668 102.125 36.9409 102.372 38.1414L101.846 37.8757L102.094 37.4034C102.341 36.9507 102.723 36.4686 103.239 35.9569C103.755 35.4255 104.374 34.9828 105.096 34.6285C105.839 34.2545 106.664 34.0676 107.572 34.0676C109.057 34.0676 110.181 34.3727 110.945 34.9827C111.729 35.5928 112.265 36.4095 112.554 37.4329C112.843 38.4366 112.987 39.5584 112.987 40.7982V48.3554C112.987 48.8672 112.812 49.3 112.461 49.6544C112.11 49.989 111.667 50.1564 111.131 50.1564C110.594 50.1564 110.15 49.989 109.8 49.6544C109.449 49.3 109.274 48.8672 109.274 48.3554V40.7982C109.274 40.1488 109.191 39.5683 109.026 39.0565C108.861 38.5251 108.562 38.102 108.129 37.7871C107.695 37.4723 107.076 37.3148 106.272 37.3148C105.488 37.3148 104.817 37.4723 104.26 37.7871C103.703 38.102 103.28 38.5251 102.991 39.0565C102.723 39.5683 102.589 40.1488 102.589 40.7982V48.3554C102.589 48.8672 102.413 49.3 102.063 49.6544C101.713 49.989 101.268 50.1564 100.732 50.1564C100.196 50.1564 99.7522 49.989 99.402 49.6544C99.0508 49.3 98.8754 48.8672 98.8754 48.3554V40.7982C98.8754 40.1488 98.793 39.5683 98.6276 39.0565C98.4628 38.5251 98.1635 38.102 97.7304 37.7871C97.2973 37.4723 96.6778 37.3148 95.8735 37.3148C95.0897 37.3148 94.4192 37.4723 93.8617 37.7871C93.3052 38.102 92.882 38.5251 92.5933 39.0565C92.325 39.5683 92.1911 40.1488 92.1911 40.7982V48.3554C92.1911 48.8672 92.0158 49.3 91.6651 49.6544C91.3139 49.989 90.8708 50.1564 90.3342 50.1564C89.7977 50.1564 89.3546 49.989 89.0033 49.6544C88.6526 49.3 88.4773 48.8672 88.4773 48.3554V36.1635C88.4773 35.6519 88.6526 35.2287 89.0033 34.8942C89.3546 34.5399 89.7977 34.3628 90.3342 34.3628C90.8708 34.3628 91.3139 34.5399 91.6651 34.8942C92.0158 35.2287 92.1911 35.6519 92.1911 36.1635V37.4329L91.7265 37.3444C91.9124 37.0098 92.1707 36.6555 92.5004 36.2816C92.8306 35.888 93.2327 35.5239 93.7073 35.1893C94.1819 34.8548 94.708 34.5891 95.2855 34.3923C95.8635 34.1758 96.493 34.0676 97.1734 34.0676Z" fill="#81818B"/>
<path d="M118.956 48.3553C118.956 48.867 118.781 49.2999 118.43 49.6542C118.079 49.9889 117.636 50.1562 117.099 50.1562C116.563 50.1562 116.119 49.9889 115.768 49.6542C115.418 49.2999 115.243 48.867 115.243 48.3553V36.1634C115.243 35.6517 115.418 35.2286 115.768 34.8941C116.119 34.5398 116.563 34.3627 117.099 34.3627C117.636 34.3627 118.079 34.5398 118.43 34.8941C118.781 35.2286 118.956 35.6517 118.956 36.1634V48.3553ZM117.068 32.4438C116.367 32.4438 115.872 32.3356 115.583 32.1191C115.294 31.9027 115.15 31.5189 115.15 30.9679V30.4069C115.15 29.8363 115.305 29.4524 115.613 29.2557C115.944 29.0392 116.439 28.9309 117.099 28.9309C117.822 28.9309 118.327 29.0392 118.615 29.2557C118.905 29.4721 119.049 29.8559 119.049 30.4069V30.9679C119.049 31.5386 118.894 31.9322 118.584 32.1486C118.276 32.3455 117.77 32.4438 117.068 32.4438Z" fill="#81818B"/>
<path d="M130.076 34.0676C131.603 34.0676 132.758 34.3727 133.542 34.9827C134.347 35.5928 134.893 36.4095 135.182 37.4329C135.492 38.4366 135.646 39.5584 135.646 40.7982V48.3554C135.646 48.8672 135.471 49.3 135.12 49.6544C134.77 49.989 134.326 50.1564 133.789 50.1564C133.253 50.1564 132.81 49.989 132.459 49.6544C132.108 49.3 131.932 48.8672 131.932 48.3554V40.7982C131.932 40.1488 131.84 39.5683 131.655 39.0565C131.489 38.5251 131.18 38.102 130.726 37.7871C130.272 37.4723 129.622 37.3148 128.776 37.3148C127.951 37.3148 127.249 37.4723 126.672 37.7871C126.115 38.102 125.682 38.5251 125.372 39.0565C125.083 39.5683 124.938 40.1488 124.938 40.7982V48.3554C124.938 48.8672 124.764 49.3 124.413 49.6544C124.062 49.989 123.618 50.1564 123.082 50.1564C122.545 50.1564 122.102 49.989 121.752 49.6544C121.4 49.3 121.225 48.8672 121.225 48.3554V36.1635C121.225 35.6519 121.4 35.2287 121.752 34.8942C122.102 34.5399 122.545 34.3628 123.082 34.3628C123.618 34.3628 124.062 34.5399 124.413 34.8942C124.764 35.2287 124.938 35.6519 124.938 36.1635V37.4329L124.475 37.3444C124.661 37.0098 124.928 36.6555 125.279 36.2816C125.63 35.888 126.043 35.5239 126.517 35.1893C126.992 34.8548 127.528 34.5891 128.126 34.3923C128.725 34.1758 129.375 34.0676 130.076 34.0676Z" fill="#81818B"/>
<path d="M154.02 42.2742C154.02 43.888 153.638 45.3149 152.875 46.5547C152.132 47.7749 151.121 48.7294 149.842 49.4181C148.583 50.1072 147.17 50.4512 145.602 50.4512C144.034 50.4512 142.61 50.1072 141.332 49.4181C140.073 48.7294 139.063 47.7749 138.299 46.5547C137.556 45.3149 137.185 43.888 137.185 42.2742C137.185 40.6605 137.556 39.2435 138.299 38.0233C139.063 36.7835 140.073 35.8191 141.332 35.1303C142.61 34.4218 144.034 34.0676 145.602 34.0676C147.17 34.0676 148.583 34.4218 149.842 35.1303C151.121 35.8191 152.132 36.7835 152.875 38.0233C153.638 39.2435 154.02 40.6605 154.02 42.2742ZM150.306 42.2742C150.306 41.2706 150.09 40.4046 149.656 39.6765C149.243 38.9286 148.676 38.3481 147.954 37.9348C147.253 37.5215 146.469 37.3148 145.602 37.3148C144.736 37.3148 143.941 37.5215 143.219 37.9348C142.518 38.3481 141.95 38.9286 141.517 39.6765C141.105 40.4046 140.898 41.2706 140.898 42.2742C140.898 43.2583 141.105 44.1242 141.517 44.8721C141.95 45.6002 142.518 46.1709 143.219 46.5842C143.941 46.9975 144.736 47.2041 145.602 47.2041C146.469 47.2041 147.253 46.9975 147.954 46.5842C148.676 46.1709 149.243 45.6002 149.656 44.8721C150.09 44.1242 150.306 43.2583 150.306 42.2742Z" fill="#81818B"/>
<path d="M167.861 34.3628C168.397 34.3628 168.841 34.5399 169.192 34.8941C169.542 35.2287 169.718 35.6518 169.718 36.1635V43.6617C169.718 45.7478 169.109 47.4009 167.892 48.6211C166.674 49.8413 164.921 50.4512 162.631 50.4512C160.341 50.4512 158.587 49.8413 157.37 48.6211C156.173 47.4009 155.575 45.7478 155.575 43.6617V36.1635C155.575 35.6518 155.75 35.2287 156.101 34.8941C156.452 34.5399 156.895 34.3628 157.432 34.3628C157.968 34.3628 158.412 34.5399 158.763 34.8941C159.113 35.2287 159.289 35.6518 159.289 36.1635V43.6617C159.289 44.8622 159.567 45.7576 160.124 46.348C160.681 46.9188 161.517 47.2041 162.631 47.2041C163.765 47.2041 164.612 46.9188 165.168 46.348C165.726 45.7576 166.004 44.8622 166.004 43.6617V36.1635C166.004 35.6518 166.18 35.2287 166.53 34.8941C166.881 34.5399 167.325 34.3628 167.861 34.3628Z" fill="#81818B"/>
<path d="M171.231 47.706C171.025 47.4305 170.932 47.0762 170.953 46.6433C170.974 46.2103 171.242 45.8364 171.758 45.5215C172.088 45.3247 172.438 45.246 172.81 45.2854C173.181 45.305 173.542 45.4821 173.893 45.8167C174.492 46.3874 175.121 46.8302 175.781 47.1451C176.441 47.46 177.266 47.6174 178.256 47.6174C178.566 47.5977 178.906 47.5584 179.277 47.4993C179.649 47.4206 179.969 47.2632 180.237 47.027C180.525 46.7712 180.67 46.3874 180.67 45.8757C180.67 45.4428 180.515 45.0983 180.206 44.8425C179.896 44.5867 179.484 44.3702 178.968 44.1931C178.473 44.016 177.916 43.8487 177.297 43.6912C176.657 43.5141 175.997 43.3173 175.316 43.1008C174.656 42.8844 174.047 42.6089 173.49 42.2742C172.934 41.92 172.48 41.4575 172.129 40.8868C171.778 40.3161 171.603 39.5977 171.603 38.7318C171.603 37.7478 171.891 36.9114 172.469 36.2226C173.047 35.5338 173.79 35.0024 174.697 34.6285C175.626 34.2545 176.595 34.0676 177.606 34.0676C178.246 34.0676 178.916 34.1463 179.618 34.3038C180.319 34.4415 180.99 34.6777 181.629 35.0123C182.269 35.3271 182.805 35.7503 183.239 36.2816C183.465 36.5768 183.6 36.931 183.641 37.3444C183.682 37.7576 183.486 38.1315 183.053 38.4661C182.744 38.7023 182.383 38.8105 181.97 38.7908C181.558 38.7515 181.217 38.6138 180.949 38.3776C180.598 37.9446 180.124 37.6002 179.525 37.3444C178.947 37.0885 178.277 36.9606 177.513 36.9606C177.204 36.9606 176.864 37 176.492 37.0787C176.142 37.1377 175.832 37.2854 175.564 37.5215C175.296 37.738 175.161 38.0922 175.161 38.5842C175.161 39.0369 175.316 39.4009 175.626 39.6765C175.935 39.9323 176.348 40.1488 176.864 40.3259C177.4 40.4834 177.968 40.6408 178.566 40.7982C179.185 40.9557 179.814 41.1426 180.454 41.3591C181.093 41.5757 181.681 41.8609 182.217 42.2152C182.754 42.5695 183.187 43.0319 183.517 43.6027C183.848 44.1537 184.012 44.8622 184.012 45.7281C184.012 46.7318 183.703 47.588 183.084 48.2964C182.465 49.0049 181.691 49.546 180.763 49.9201C179.835 50.2745 178.885 50.4512 177.916 50.4512C176.699 50.4512 175.482 50.2548 174.264 49.861C173.047 49.4476 172.036 48.7294 171.231 47.706Z" fill="#81818B"/>
</svg>
