<svg width="210" height="79" viewBox="0 0 210 79" fill="none" xmlns="http://www.w3.org/2000/svg">
<path d="M71.0681 30.5349C72.6557 30.5349 74.0296 30.7904 75.1904 31.3015C76.368 31.8126 77.272 32.5379 77.9036 33.4777C78.5352 34.4174 78.8512 35.5302 78.8512 36.8161C78.8512 38.0855 78.5352 39.1983 77.9036 40.1545C77.272 41.0942 76.368 41.8196 75.1904 42.3309C74.0296 42.8252 72.6557 43.0726 71.0681 43.0726H67.4587V47.8454H63.3118V30.5349H71.0681ZM70.8382 39.8083C72.0835 39.8083 73.0311 39.5528 73.6795 39.0417C74.3284 38.5141 74.6523 37.7723 74.6523 36.8161C74.6523 35.8434 74.3284 35.1015 73.6795 34.5905C73.0311 34.0629 72.0835 33.7992 70.8382 33.7992H67.4587V39.8083H70.8382Z" fill="#81818B"/>
<path d="M84.0651 36.2966C84.5424 35.6536 85.1829 35.1673 85.9845 34.8376C86.8041 34.5078 87.7422 34.343 88.8006 34.343V37.904C88.357 37.871 88.0583 37.8545 87.9045 37.8545C86.761 37.8545 85.8654 38.1678 85.217 38.7942C84.5681 39.4042 84.2436 40.3274 84.2436 41.5638V47.8452H80.2505V34.5408H84.0651V36.2966Z" fill="#81818B"/>
<path d="M96.3239 48.0427C94.8733 48.0427 93.5677 47.7546 92.4074 47.1773C91.264 46.584 90.3678 45.7676 89.7194 44.729C89.071 43.6905 88.7466 42.5117 88.7466 41.193C88.7466 39.8741 89.071 38.6953 89.7194 37.6567C90.3678 36.6181 91.264 35.8103 92.4074 35.2333C93.5677 34.6397 94.8733 34.343 96.3239 34.343C97.7745 34.343 99.0718 34.6397 100.215 35.2333C101.359 35.8103 102.255 36.6181 102.904 37.6567C103.552 38.6953 103.876 39.8741 103.876 41.193C103.876 42.5117 103.552 43.6905 102.904 44.729C102.255 45.7676 101.359 46.584 100.215 47.1773C99.0718 47.7546 97.7745 48.0427 96.3239 48.0427ZM96.3239 44.8775C97.3482 44.8775 98.1845 44.5481 98.8329 43.8884C99.4986 43.2126 99.8309 42.3142 99.8309 41.193C99.8309 40.0719 99.4986 39.1816 98.8329 38.5222C98.1845 37.8462 97.3482 37.5083 96.3239 37.5083C95.3002 37.5083 94.4554 37.8462 93.7897 38.5222C93.124 39.1816 92.7912 40.0719 92.7912 41.193C92.7912 42.3142 93.124 43.2126 93.7897 43.8884C94.4554 44.5481 95.3002 44.8775 96.3239 44.8775Z" fill="#81818B"/>
<path d="M121.983 30.5349V47.8454H118.578L109.643 37.3354V47.8454H105.547V30.5349H108.977L117.887 41.0448V30.5349H121.983Z" fill="#81818B"/>
<path d="M130.216 34.343C132.349 34.343 133.988 34.8376 135.131 35.8268C136.275 36.7994 136.847 38.275 136.847 40.2533V47.8452H133.109V46.1882C132.358 47.4247 130.959 48.0427 128.911 48.0427C127.852 48.0427 126.93 47.87 126.146 47.5237C125.378 47.1773 124.789 46.6995 124.379 46.0893C123.97 45.4794 123.765 44.7868 123.765 44.0121C123.765 42.7756 124.243 41.803 125.198 41.094C126.171 40.3851 127.665 40.0307 129.679 40.0307H132.853C132.853 39.1899 132.589 38.547 132.059 38.1018C131.53 37.6402 130.737 37.4094 129.679 37.4094C128.945 37.4094 128.219 37.5248 127.503 37.7556C126.803 37.9699 126.205 38.2667 125.71 38.6459L124.277 35.9504C125.028 35.4393 125.923 35.0437 126.965 34.7634C128.023 34.4831 129.107 34.343 130.216 34.343ZM129.909 45.4465C130.592 45.4465 131.198 45.298 131.726 45.0012C132.255 44.6878 132.631 44.2347 132.853 43.641V42.2812H130.114C128.475 42.2812 127.656 42.8003 127.656 43.8389C127.656 44.3337 127.852 44.729 128.245 45.0259C128.654 45.3063 129.209 45.4465 129.909 45.4465Z" fill="#81818B"/>
<path d="M148.064 47.2021C147.672 47.4825 147.185 47.6969 146.605 47.8453C146.042 47.9768 145.445 48.0428 144.813 48.0428C143.175 48.0428 141.903 47.6392 140.999 46.8315C140.111 46.0234 139.667 44.8363 139.667 43.2704V37.8052H137.543V34.8377H139.667V31.5981H143.661V34.8377H147.091V37.8052H143.661V43.2209C143.661 43.7812 143.806 44.2183 144.096 44.5316C144.403 44.8281 144.83 44.9765 145.376 44.9765C146.008 44.9765 146.545 44.8116 146.989 44.4822L148.064 47.2021Z" fill="#81818B"/>
<path d="M162.902 34.541V47.8454H159.113V46.2626C158.583 46.8394 157.952 47.2847 157.218 47.598C156.484 47.8949 155.691 48.0429 154.837 48.0429C153.028 48.0429 151.595 47.5403 150.536 46.5347C149.478 45.5291 148.949 44.037 148.949 42.0588V34.541H152.943V41.4898C152.943 43.6329 153.873 44.7045 155.733 44.7045C156.689 44.7045 157.457 44.408 158.037 43.8143C158.617 43.2045 158.907 42.3061 158.907 41.119V34.541H162.902Z" fill="#81818B"/>
<path d="M169.136 36.2966C169.613 35.6536 170.254 35.1673 171.056 34.8376C171.875 34.5078 172.814 34.343 173.872 34.343V37.904C173.428 37.871 173.129 37.8545 172.976 37.8545C171.832 37.8545 170.936 38.1678 170.288 38.7942C169.639 39.4042 169.315 40.3274 169.315 41.5638V47.8452H165.322V34.5408H169.136V36.2966Z" fill="#81818B"/>
<path d="M188.333 41.2426C188.333 41.2917 188.308 41.638 188.256 42.2812H177.837C178.024 43.1054 178.468 43.7564 179.168 44.2347C179.868 44.7126 180.738 44.9517 181.779 44.9517C182.496 44.9517 183.127 44.8527 183.673 44.6549C184.237 44.4409 184.758 44.111 185.235 43.6657L187.36 45.8913C186.063 47.3257 184.169 48.0427 181.676 48.0427C180.124 48.0427 178.75 47.7546 177.555 47.1773C176.36 46.584 175.439 45.7676 174.79 44.729C174.142 43.6905 173.818 42.5117 173.818 41.193C173.818 39.8905 174.133 38.72 174.765 37.6814C175.413 36.6263 176.292 35.8103 177.401 35.2333C178.528 34.6397 179.782 34.343 181.165 34.343C182.513 34.343 183.733 34.6233 184.826 35.1838C185.918 35.7443 186.771 36.5521 187.386 37.6073C188.017 38.6459 188.333 39.8576 188.333 41.2426ZM181.19 37.261C180.286 37.261 179.526 37.5083 178.912 38.0029C178.297 38.4975 177.922 39.1734 177.786 40.0307H184.57C184.433 39.1899 184.057 38.5222 183.443 38.0276C182.829 37.5165 182.078 37.261 181.19 37.261Z" fill="#81818B"/>
<path fill-rule="evenodd" clip-rule="evenodd" d="M40.568 20.8947C39.9595 20.5546 39.2092 20.5546 38.6007 20.8947C34.2787 23.3097 31.3637 27.8284 31.3637 33.007C31.3637 33.745 31.4229 34.4697 31.537 35.1768C28.5617 34.2008 25.3402 34.5559 22.7089 36.0205C22.0999 36.3596 21.7247 36.9871 21.7253 37.6662C21.7284 41.2486 23.655 44.74 27.1053 46.6642C28.798 47.6084 30.6455 48.057 32.4679 48.0578C32.1906 48.8169 32.0398 49.6332 32.0398 50.4838C32.0398 54.5088 35.4175 57.7711 39.5841 57.7711C43.7508 57.7711 47.1283 54.5088 47.1283 50.4838C47.1283 49.6311 46.9768 48.8131 46.6985 48.0529C48.4122 48.0005 50.1383 47.5511 51.7278 46.6642C55.1785 44.74 57.1047 41.2486 57.1073 37.6663C57.1084 36.9873 56.733 36.3597 56.124 36.0207C53.5967 34.6137 50.5242 34.2306 47.6491 35.0678C47.7519 34.3953 47.8048 33.7072 47.8048 33.007C47.8048 27.8284 44.89 23.3097 40.568 20.8947ZM35.2924 33.007C35.2924 29.6441 36.978 26.6598 39.5843 24.8022C42.1907 26.6598 43.8763 29.6441 43.8763 33.007C43.8763 36.3697 42.1907 39.3541 39.5843 41.2116C36.978 39.3541 35.2924 36.3697 35.2924 33.007ZM47.3315 39.3088C49.1455 38.2971 51.2417 38.1795 53.0727 38.8196C52.7315 40.6715 51.5776 42.366 49.7635 43.3778C47.9495 44.3895 45.8534 44.507 44.0223 43.8672C44.3638 42.0151 45.5174 40.3206 47.3315 39.3088ZM25.7604 38.8195C27.5914 38.1793 29.6875 38.297 31.5016 39.3087C33.3157 40.3204 34.4692 42.0151 34.8109 43.8667C32.9798 44.507 30.8837 44.3895 29.0696 43.3778C27.2556 42.366 26.102 40.6713 25.7604 38.8195ZM35.9685 50.4838C35.9685 48.555 37.5872 46.9912 39.5841 46.9912C41.5809 46.9912 43.1998 48.555 43.1998 50.4838C43.1998 52.4125 41.5809 53.9764 39.5841 53.9764C37.5872 53.9764 35.9685 52.4125 35.9685 50.4838Z" fill="#81818B"/>
</svg>
