<svg width="12" height="11" viewBox="0 0 12 11" fill="none" xmlns="http://www.w3.org/2000/svg">
<path d="M5.72635 0.464037C5.87928 0.218065 6.23727 0.218065 6.39021 0.464037L8.00411 3.05977C8.05792 3.14631 8.1434 3.20841 8.24233 3.23285L11.2097 3.96563C11.4909 4.03507 11.6016 4.37554 11.4149 4.597L9.44492 6.93403C9.37924 7.01195 9.34659 7.11244 9.35393 7.21408L9.57399 10.2627C9.59484 10.5516 9.30522 10.762 9.03691 10.6529L6.20551 9.50154C6.11111 9.46316 6.00545 9.46316 5.91105 9.50154L3.07964 10.6529C2.81134 10.762 2.52172 10.5516 2.54257 10.2627L2.76263 7.21408C2.76997 7.11244 2.73732 7.01195 2.67164 6.93403L0.701673 4.597C0.514999 4.37554 0.625625 4.03507 0.906817 3.96563L3.87423 3.23285C3.97316 3.20841 4.05864 3.14631 4.11245 3.05977L5.72635 0.464037Z" fill="#FFC833"/>
</svg>
