<svg width="17" height="17" viewBox="0 0 17 17" fill="none" xmlns="http://www.w3.org/2000/svg">
<g clip-path="url(#clip0_125_274)">
<path d="M11.1959 5.76902L11.1958 5.76884L9.72734 1.80256C9.72732 1.8025 9.7273 1.80245 9.72728 1.8024C9.64645 1.58141 9.49966 1.39058 9.3068 1.25575C9.1139 1.12089 8.88421 1.04856 8.64884 1.04856C8.41347 1.04856 8.18378 1.12089 7.99087 1.25575C7.79797 1.39061 7.65116 1.5815 7.57033 1.80256L6.10652 5.78318C6.10652 5.78319 6.10652 5.7832 6.10651 5.78321C6.10594 5.78475 6.10493 5.78611 6.10361 5.7871C6.10246 5.78796 6.10112 5.78851 6.09972 5.78872L1.85318 5.94915C1.61387 5.95329 1.38183 6.0321 1.18949 6.17458C0.99686 6.31728 0.853717 6.51669 0.780136 6.74485C0.706555 6.97301 0.706224 7.21848 0.779192 7.44683C0.852025 7.67477 0.994242 7.87425 1.18596 8.01741L4.5188 10.6374C4.51881 10.6374 4.51882 10.6374 4.51884 10.6375C4.52014 10.6385 4.52112 10.6399 4.52165 10.6415C4.52214 10.643 4.52222 10.6446 4.52187 10.6461C4.52185 10.6462 4.52182 10.6463 4.5218 10.6464L3.37481 14.7104C3.37479 14.7105 3.37477 14.7105 3.37475 14.7106C3.30967 14.9373 3.316 15.1786 3.39288 15.4016C3.46978 15.6247 3.61353 15.8187 3.80458 15.9572C3.99563 16.0956 4.2247 16.1719 4.46063 16.1756C4.69645 16.1793 4.92768 16.1102 5.1229 15.9779C5.12299 15.9778 5.12308 15.9778 5.12317 15.9777L8.64549 13.6169L8.64549 13.6169L8.64663 13.6161C8.64728 13.6157 8.64805 13.6154 8.64884 13.6154C8.64963 13.6154 8.6504 13.6157 8.65104 13.6161L8.65219 13.6169L12.1738 15.9773C12.3664 16.1138 12.5966 16.1872 12.8327 16.1872C13.0693 16.1872 13.3 16.1135 13.4928 15.9764L13.4931 15.9762C13.6844 15.8389 13.8284 15.6457 13.9053 15.4232C13.9822 15.2009 13.9884 14.9601 13.9229 14.7341C13.9229 14.734 13.9228 14.7339 13.9228 14.7338L12.766 10.6543L12.766 10.6543L12.7656 10.6529C12.7654 10.6522 12.7654 10.6514 12.7656 10.6506C12.7659 10.6498 12.7664 10.6492 12.767 10.6487L12.7671 10.6487L12.7696 10.6468L16.1165 8.00317C16.3082 7.86002 16.4504 7.66056 16.5232 7.43266C16.5962 7.20431 16.5958 6.95884 16.5223 6.73068C16.4487 6.50252 16.3055 6.30311 16.1129 6.16041C15.9206 6.01793 15.6885 5.93912 15.4492 5.93498L11.2027 5.77456C11.2013 5.77435 11.1999 5.77379 11.1988 5.77293C11.1975 5.77193 11.1964 5.77057 11.1959 5.76902ZM11.6622 10.9402L11.6622 10.9403L12.8192 15.0203L12.8183 15.0205L12.8236 15.0327C12.8239 15.0335 12.824 15.0344 12.8237 15.0353C12.8235 15.0361 12.823 15.0369 12.8223 15.0374C12.8215 15.0379 12.8207 15.0382 12.8198 15.0381C12.8194 15.0381 12.819 15.038 12.8187 15.0379C12.8182 15.0377 12.8178 15.0374 12.8174 15.0371L12.8119 15.0321L12.8058 15.028L9.28337 12.6671C9.2833 12.6671 9.28323 12.667 9.28315 12.667C9.12153 12.5576 8.93508 12.4917 8.74175 12.4748V2.45802L10.1155 6.173C10.1156 6.1731 10.1156 6.1732 10.1157 6.1733C10.1936 6.38757 10.3336 6.5738 10.5177 6.70824C10.702 6.84275 10.9221 6.91932 11.1501 6.92821L11.1502 6.92821L15.4002 7.08877L15.4002 7.08891L15.4056 7.08883C15.4064 7.08881 15.4072 7.08907 15.4079 7.08955C15.4083 7.08982 15.4086 7.09015 15.4089 7.09053C15.4091 7.09083 15.4092 7.09116 15.4094 7.09151C15.4096 7.0923 15.4096 7.09315 15.4093 7.09395C15.4091 7.09474 15.4086 7.09542 15.4079 7.0959L15.4078 7.09578L15.4036 7.09911L12.071 9.71894C12.0708 9.71911 12.0705 9.71928 12.0703 9.71946C11.8877 9.85837 11.7512 10.049 11.6783 10.2665C11.6054 10.4844 11.5998 10.7191 11.6622 10.9402Z" fill="#FFC833" stroke="#FFC833" stroke-width="0.2"/>
</g>
<defs>
<clipPath id="clip0_125_274">
<rect width="17" height="17" fill="white"/>
</clipPath>
</defs>
</svg>
