<svg width="11" height="11" viewBox="0 0 11 11" fill="none" xmlns="http://www.w3.org/2000/svg">
<path d="M5.19205 0.464037C5.34498 0.218065 5.70297 0.218065 5.85591 0.464037L7.46981 3.05977C7.52361 3.14631 7.6091 3.20841 7.70803 3.23285L10.6754 3.96563C10.9566 4.03507 11.0673 4.37554 10.8806 4.597L8.91062 6.93403C8.84494 7.01195 8.81229 7.11244 8.81963 7.21408L9.03968 10.2627C9.06054 10.5516 8.77092 10.762 8.50261 10.6529L5.67121 9.50154C5.57681 9.46316 5.47115 9.46316 5.37675 9.50154L2.54534 10.6529C2.27704 10.762 1.98742 10.5516 2.00827 10.2627L2.22833 7.21408C2.23566 7.11244 2.20301 7.01195 2.13733 6.93403L0.167372 4.597C-0.0193025 4.37554 0.0913231 4.03507 0.372515 3.96563L3.33992 3.23285C3.43886 3.20841 3.52434 3.14631 3.57815 3.05977L5.19205 0.464037Z" fill="#E4E4E4"/>
</svg>
